<svg xmlns="http://www.w3.org/2000/svg" xmlns:xlink="http://www.w3.org/1999/xlink" width="812" height="196" viewBox="0 0 812 196">
  <defs>
    <filter id="Rectángulo_5592" x="4" y="5" width="218" height="99" filterUnits="userSpaceOnUse">
      <feOffset dy="3" input="SourceAlpha"/>
      <feGaussianBlur stdDeviation="3" result="blur"/>
      <feFlood flood-opacity="0.161"/>
      <feComposite operator="in" in2="blur"/>
      <feComposite in="SourceGraphic"/>
    </filter>
    <filter id="Rectángulo_5593" x="4" y="97" width="218" height="99" filterUnits="userSpaceOnUse">
      <feOffset dy="3" input="SourceAlpha"/>
      <feGaussianBlur stdDeviation="3" result="blur-2"/>
      <feFlood flood-opacity="0.161"/>
      <feComposite operator="in" in2="blur-2"/>
      <feComposite in="SourceGraphic"/>
    </filter>
    <filter id="Rectángulo_5596" x="590" y="5" width="218" height="99" filterUnits="userSpaceOnUse">
      <feOffset dy="3" input="SourceAlpha"/>
      <feGaussianBlur stdDeviation="3" result="blur-3"/>
      <feFlood flood-opacity="0.161"/>
      <feComposite operator="in" in2="blur-3"/>
      <feComposite in="SourceGraphic"/>
    </filter>
    <filter id="Trazado_103271" x="590.333" y="97.157" width="218.157" height="98.745" filterUnits="userSpaceOnUse">
      <feOffset dy="3" input="SourceAlpha"/>
      <feGaussianBlur stdDeviation="3" result="blur-4"/>
      <feFlood flood-opacity="0.161"/>
      <feComposite operator="in" in2="blur-4"/>
      <feComposite in="SourceGraphic"/>
    </filter>
    <filter id="Rectángulo_5597" x="279" y="22" width="254" height="87" filterUnits="userSpaceOnUse">
      <feOffset dy="3" input="SourceAlpha"/>
      <feGaussianBlur stdDeviation="3" result="blur-5"/>
      <feFlood flood-opacity="0.161"/>
      <feComposite operator="in" in2="blur-5"/>
      <feComposite in="SourceGraphic"/>
    </filter>
    <filter id="Rectángulo_5598" x="279" y="89" width="254" height="88" filterUnits="userSpaceOnUse">
      <feOffset dy="3" input="SourceAlpha"/>
      <feGaussianBlur stdDeviation="3" result="blur-6"/>
      <feFlood flood-opacity="0.161"/>
      <feComposite operator="in" in2="blur-6"/>
      <feComposite in="SourceGraphic"/>
    </filter>
  </defs>
  <g id="Grupo_55300" data-name="Grupo 55300" transform="translate(-406 -4011.333)">
    <g id="Grupo_55294" data-name="Grupo 55294" transform="translate(406 4011)">
      <rect id="Rectángulo_5594" data-name="Rectángulo 5594" width="225" height="193" transform="translate(0 0.333)" fill="#0991a1"/>
      <g transform="matrix(1, 0, 0, 1, 0, 0.33)" filter="url(#Rectángulo_5592)">
        <g id="Rectángulo_5592-2" data-name="Rectángulo 5592" transform="translate(13 11)" fill="#dfe7f5" stroke="#fff" stroke-width="3">
          <rect width="200" height="81" stroke="none"/>
          <rect x="1.5" y="1.5" width="197" height="78" fill="none"/>
        </g>
      </g>
      <g transform="matrix(1, 0, 0, 1, 0, 0.33)" filter="url(#Rectángulo_5593)">
        <g id="Rectángulo_5593-2" data-name="Rectángulo 5593" transform="translate(13 103)" fill="#fff3d0" stroke="#fff" stroke-width="3">
          <rect width="200" height="81" stroke="none"/>
          <rect x="1.5" y="1.5" width="197" height="78" fill="none"/>
        </g>
      </g>
      <text id="_Proveedor_Servidor_de_Seguridad" data-name="(Proveedor)
Servidor de Seguridad" transform="translate(13 26.333)" fill="#12263f" font-size="14" font-family="Roboto-Regular, Roboto"><tspan x="63.4" y="15">(Proveedor)</tspan><tspan font-family="Roboto-Bold, Roboto" font-weight="700"><tspan x="30.185" y="37">Servidor de Seguridad</tspan></tspan></text>
      <text id="Sistema_de_información_A" data-name="Sistema de
información A" transform="translate(13 118.333)" fill="#12263f" font-size="14" font-family="Roboto-Bold, Roboto" font-weight="700"><tspan x="64.809" y="15">Sistema de</tspan><tspan x="55.553" y="37">información A</tspan></text>
    </g>
    <g id="Grupo_55295" data-name="Grupo 55295" transform="translate(992.824 4011)">
      <rect id="Rectángulo_5595" data-name="Rectángulo 5595" width="225" height="193" transform="translate(0.176 0.333)" fill="#0991a1"/>
      <g transform="matrix(1, 0, 0, 1, -586.82, 0.33)" filter="url(#Rectángulo_5596)">
        <g id="Rectángulo_5596-2" data-name="Rectángulo 5596" transform="translate(599 11)" fill="#dfe7f5" stroke="#fff" stroke-width="3">
          <rect width="200" height="81" stroke="none"/>
          <rect x="1.5" y="1.5" width="197" height="78" fill="none"/>
        </g>
      </g>
      <g transform="matrix(1, 0, 0, 1, -586.82, 0.33)" filter="url(#Trazado_103271)">
        <g id="Trazado_103271-2" data-name="Trazado 103271" transform="translate(599.33 103.16)" fill="#fff3d0">
          <path d="M 199.1568908691406 79.74510192871094 L 0.9999904632568359 79.74510192871094 L 0.9999904632568359 0.9999983310699463 L 199.1568908691406 0.9999983310699463 L 199.1568908691406 79.74510192871094 Z" stroke="none"/>
          <path d="M 1.999984741210938 2 L 1.999984741210938 78.74510192871094 L 198.1568908691406 78.74510192871094 L 198.1568908691406 2 L 1.999984741210938 2 M -1.52587890625e-05 0 L 200.1568908691406 0 L 200.1568908691406 80.74510192871094 L -1.52587890625e-05 80.74510192871094 L -1.52587890625e-05 0 Z" stroke="none" fill="#fff"/>
        </g>
      </g>
      <text id="_Consumidor_Servidor_de_Seguridad" data-name="(Consumidor)
Servidor de Seguridad" transform="translate(12.177 26.333)" fill="#12263f" font-size="14" font-family="Roboto-Regular, Roboto"><tspan x="57.152" y="15">(Consumidor)</tspan><tspan font-family="Roboto-Bold, Roboto" font-weight="700"><tspan x="30.185" y="37">Servidor de Seguridad</tspan></tspan></text>
      <text id="Sistema_de_información_B" data-name="Sistema de
información B" transform="translate(12.177 118.333)" fill="#12263f" font-size="14" font-family="Roboto-Bold, Roboto" font-weight="700"><tspan x="64.809" y="15">Sistema de</tspan><tspan x="55.795" y="37">información B</tspan></text>
    </g>
    <g id="Grupo_55296" data-name="Grupo 55296" transform="translate(693.725 4039.431)">
      <g transform="matrix(1, 0, 0, 1, -287.73, -28.1)" filter="url(#Rectángulo_5597)">
        <g id="Rectángulo_5597-2" data-name="Rectángulo 5597" transform="translate(288 28)" fill="#fff" stroke="#12263f" stroke-width="1">
          <rect width="236" height="69" stroke="none"/>
          <rect x="0.5" y="0.5" width="235" height="68" fill="none"/>
        </g>
      </g>
      <g transform="matrix(1, 0, 0, 1, -287.73, -28.1)" filter="url(#Rectángulo_5598)">
        <g id="Rectángulo_5598-2" data-name="Rectángulo 5598" transform="translate(288 95)" fill="#f6f6f6" stroke="#12263f" stroke-width="1">
          <rect width="236" height="70" stroke="none"/>
          <rect x="0.5" y="0.5" width="235" height="69" fill="none"/>
        </g>
      </g>
      <text id="Autoridad_de_Certificación" data-name="Autoridad de Certificación" transform="translate(18.274 25.902)" fill="#12263f" font-size="14" font-family="Roboto-Regular, Roboto"><tspan x="19.155" y="15">Autoridad de Certificación</tspan></text>
      <text id="OCSP" transform="translate(18.274 92.902)" fill="#12263f" font-size="14" font-family="Roboto-Bold, Roboto" font-weight="700"><tspan x="81.769" y="15">OCSP</tspan></text>
    </g>
    <g id="Grupo_55298" data-name="Grupo 55298" transform="translate(635.77 4104.864) rotate(30)">
      <line id="Línea_167" data-name="Línea 167" x2="54.588" transform="translate(6.255 3.98)" fill="none" stroke="#707070" stroke-width="1"/>
      <path id="Polígono_1" data-name="Polígono 1" d="M4.549,0,9.1,7.961H0Z" transform="translate(68.235) rotate(90)" fill="#707070"/>
      <path id="Polígono_2" data-name="Polígono 2" d="M4.549,0,9.1,7.961H0Z" transform="translate(0 9.098) rotate(-90)" fill="#707070"/>
    </g>
    <g id="Grupo_55299" data-name="Grupo 55299" transform="translate(992.779 4112.743) rotate(150)">
      <line id="Línea_167-2" data-name="Línea 167" x2="54.588" transform="translate(6.255 5.118)" fill="none" stroke="#707070" stroke-width="1"/>
      <path id="Polígono_1-2" data-name="Polígono 1" d="M4.549,0,9.1,7.961H0Z" transform="translate(68.235 0) rotate(90)" fill="#707070"/>
      <path id="Polígono_2-2" data-name="Polígono 2" d="M4.549,0,9.1,7.961H0Z" transform="translate(0 9.098) rotate(-90)" fill="#707070"/>
    </g>
  </g>
</svg>
