<svg xmlns="http://www.w3.org/2000/svg" width="138.277" height="138.277" viewBox="0 0 138.277 138.277">
  <g id="Grupo_55068" data-name="Grupo 55068" transform="translate(-112.379 519.805)">
    <path id="Trazado_103073" data-name="Trazado 103073" d="M250.656-450.666a69.14,69.14,0,0,1-69.138,69.138,68.783,68.783,0,0,1-35.415-9.75l-23.888-23.828a68.814,68.814,0,0,1-9.836-35.56A69.141,69.141,0,0,1,181.518-519.8a69.14,69.14,0,0,1,69.138,69.139Z" fill="#4276d5"/>
    <path id="Trazado_103074" data-name="Trazado 103074" d="M250.656-450.666a69.064,69.064,0,0,1-29.708,56.8,68.818,68.818,0,0,1-39.43,12.339,68.814,68.814,0,0,1-35.409-9.744l0,0L122.218-415.1a68.8,68.8,0,0,1-9.839-35.563,68.814,68.814,0,0,1,9.1-34.3,69.115,69.115,0,0,0,60.043,34.839,69.11,69.11,0,0,0,60.042-34.839,68.8,68.8,0,0,1,9.1,34.3Z" fill="#3366c2"/>
    <path id="Trazado_103075" data-name="Trazado 103075" d="M200.571-488.006v99.451a7,7,0,0,1-2,4.907,69.189,69.189,0,0,1-17.055,2.12c-.368,0-.735,0-1.1-.011a68.789,68.789,0,0,1-23.942-4.667,69.051,69.051,0,0,1-10.365-5.066l-23.9-23.842a68.844,68.844,0,0,1-9.828-35.552,68.857,68.857,0,0,1,16.113-44.368h25.462a2.519,2.519,0,0,0,2.52,2.52,2.519,2.519,0,0,0,2.522-2.52h34.548a7.026,7.026,0,0,1,7.027,7.028Z" fill="#ffe955"/>
    <path id="Trazado_103076" data-name="Trazado 103076" d="M200.571-488.006v99.451a7,7,0,0,1-2,4.907,69.189,69.189,0,0,1-17.055,2.12,68.887,68.887,0,0,1-25.044-4.678V-492.514a2.519,2.519,0,0,0,2.522-2.52h34.548a7.026,7.026,0,0,1,7.027,7.028Z" fill="#ffd112"/>
    <path id="Trazado_103077" data-name="Trazado 103077" d="M190.743-482.519v91.247H146.109a69.476,69.476,0,0,1-23.9-23.842v-67.4a2.771,2.771,0,0,1,2.77-2.771h63a2.771,2.771,0,0,1,2.77,2.771Z" fill="#fff"/>
    <path id="Trazado_103078" data-name="Trazado 103078" d="M190.744-482.519v91.247H156.475v-94.017h31.5a2.77,2.77,0,0,1,2.77,2.77Z" fill="#d1f6ff"/>
    <path id="Trazado_103079" data-name="Trazado 103079" d="M165.984-495.034a3.524,3.524,0,0,1-3.326-2.263,6.587,6.587,0,0,0-6.183-4.319,6.582,6.582,0,0,0-6.183,4.318,3.524,3.524,0,0,1-3.327,2.264h-5.7a2.649,2.649,0,0,0-2.649,2.649v8.932a5.665,5.665,0,0,0,5.665,5.665h24.384a5.664,5.664,0,0,0,5.664-5.664v-8.932a2.648,2.648,0,0,0-2.648-2.649h-5.7Zm-9.509,2.521a2.52,2.52,0,0,1-2.521-2.521,2.52,2.52,0,0,1,2.521-2.52,2.52,2.52,0,0,1,2.52,2.52,2.519,2.519,0,0,1-2.52,2.521Z" fill="#374c81"/>
    <path id="Trazado_103080" data-name="Trazado 103080" d="M174.331-492.385v8.932a5.664,5.664,0,0,1-5.664,5.665H156.475v-14.725a2.52,2.52,0,0,0,2.52-2.52,2.52,2.52,0,0,0-2.52-2.521v-4.062a6.587,6.587,0,0,1,6.183,4.319,3.525,3.525,0,0,0,3.326,2.264h5.7a2.647,2.647,0,0,1,2.649,2.648Z" fill="#323b5a"/>
    <g id="Grupo_55066" data-name="Grupo 55066">
      <path id="Trazado_103081" data-name="Trazado 103081" d="M180.876-456.087h-20.76a3.641,3.641,0,0,1-3.641-3.641,3.641,3.641,0,0,1,3.641-3.641h20.76a3.641,3.641,0,0,1,3.641,3.641,3.641,3.641,0,0,1-3.641,3.641Z" fill="#374c81"/>
      <path id="Trazado_103082" data-name="Trazado 103082" d="M180.876-441.523h-20.76a3.641,3.641,0,0,1-3.641-3.641,3.641,3.641,0,0,1,3.641-3.641h20.76a3.641,3.641,0,0,1,3.641,3.641,3.641,3.641,0,0,1-3.641,3.641Z" fill="#374c81"/>
      <path id="Trazado_103083" data-name="Trazado 103083" d="M180.876-426.958h-20.76a3.641,3.641,0,0,1-3.641-3.641,3.641,3.641,0,0,1,3.641-3.641h20.76a3.641,3.641,0,0,1,3.641,3.641,3.641,3.641,0,0,1-3.641,3.641Z" fill="#374c81"/>
      <path id="Trazado_103084" data-name="Trazado 103084" d="M180.876-412.394h-20.76a3.641,3.641,0,0,1-3.641-3.641,3.641,3.641,0,0,1,3.641-3.641h20.76a3.641,3.641,0,0,1,3.641,3.641,3.641,3.641,0,0,1-3.641,3.641Z" fill="#374c81"/>
    </g>
    <path id="Trazado_103085" data-name="Trazado 103085" d="M134.774-453.776l-7.892-7.892,4.439-4.438,3.453,3.454,9.013-9.013,4.438,4.438Z" fill="#369cef"/>
    <path id="Trazado_103086" data-name="Trazado 103086" d="M134.774-433.4l-7.892-7.893,4.439-4.437,3.453,3.454,9.013-9.013,4.438,4.438Z" fill="#369cef"/>
    <path id="Trazado_103087" data-name="Trazado 103087" d="M134.774-413.02l-7.892-7.892,4.439-4.439,3.453,3.454,9.013-9.012,4.438,4.438Z" fill="#369cef"/>
    <g id="Grupo_55067" data-name="Grupo 55067">
      <path id="Trazado_103088" data-name="Trazado 103088" d="M239-428.436a31.574,31.574,0,0,1-31.5,31.572h-.076a31.574,31.574,0,0,1-31.572-31.572,31.574,31.574,0,0,1,31.572-31.573h.076A31.574,31.574,0,0,1,239-428.436Z" fill="#474f6f"/>
      <path id="Trazado_103089" data-name="Trazado 103089" d="M239-428.436a31.574,31.574,0,0,1-31.5,31.572,34.771,34.771,0,0,1-20.19-31.572,34.774,34.774,0,0,1,20.19-31.573A31.574,31.574,0,0,1,239-428.436Z" fill="#323b5a"/>
      <path id="Trazado_103090" data-name="Trazado 103090" d="M239-428.436a31.574,31.574,0,0,1-31.572,31.572v-63.145A31.574,31.574,0,0,1,239-428.436Z" fill="#20273a"/>
      <path id="Trazado_103091" data-name="Trazado 103091" d="M232.552-428.436a25.121,25.121,0,0,1-24.673,25.118c-.148,0-.3,0-.45,0a25.123,25.123,0,0,1-25.122-25.122,25.123,25.123,0,0,1,25.122-25.123c.149,0,.3,0,.45,0A25.121,25.121,0,0,1,232.552-428.436Z" fill="#fff"/>
      <path id="Trazado_103092" data-name="Trazado 103092" d="M232.552-428.436a25.123,25.123,0,0,1-25.123,25.122v-50.245A25.123,25.123,0,0,1,232.552-428.436Z" fill="#8fc9f7"/>
    </g>
    <path id="Trazado_103093" data-name="Trazado 103093" d="M191.946-440.011l16.254,13.53h15.382" fill="none" stroke="#20273a" stroke-linecap="round" stroke-linejoin="round" stroke-width="3.284"/>
  </g>
</svg>
