<svg xmlns="http://www.w3.org/2000/svg" xmlns:xlink="http://www.w3.org/1999/xlink" width="158" height="158" viewBox="0 0 158 158">
  <defs>
    <radialGradient id="radial-gradient" cx="0.5" cy="0.5" r="0.5" gradientUnits="objectBoundingBox">
      <stop offset="0" stop-color="#fff"/>
      <stop offset="1" stop-color="#a7beff"/>
    </radialGradient>
    <filter id="Trazado_103888" x="0" y="0" width="158" height="158" filterUnits="userSpaceOnUse">
      <feOffset dy="3" input="SourceAlpha"/>
      <feGaussianBlur stdDeviation="3" result="blur"/>
      <feFlood flood-opacity="0.161"/>
      <feComposite operator="in" in2="blur"/>
      <feComposite in="SourceGraphic"/>
    </filter>
  </defs>
  <g id="Grupo_55504" data-name="Grupo 55504" transform="translate(-409 -1539)">
    <g transform="matrix(1, 0, 0, 1, 409, 1539)" filter="url(#Trazado_103888)">
      <path id="Trazado_103888-2" data-name="Trazado 103888" d="M70,0A70,70,0,1,1,0,70,70,70,0,0,1,70,0Z" transform="translate(9 6)" fill="url(#radial-gradient)"/>
    </g>
    <g id="Grupo_55494" data-name="Grupo 55494" transform="translate(446 1573)">
      <path id="Trazado_103792" data-name="Trazado 103792" d="M-732.033-172.641h26.918a10.767,10.767,0,0,0,10.744-10.79,10.767,10.767,0,0,0-7.285-10.165,10.748,10.748,0,0,0-13.509-6.781,10.767,10.767,0,0,0-15.007-2.578,10.767,10.767,0,0,0-4.553,8.78c0,.117.013.232.018.349a10.767,10.767,0,0,0-7.7,13.136A10.767,10.767,0,0,0-732.033-172.641Z" transform="translate(744.12 254.74)" fill="#78a0d4"/>
      <path id="Trazado_103793" data-name="Trazado 103793" d="M-569.391-141v5.384c0,2.23-6.628,4.038-14.8,4.038s-14.8-1.808-14.8-4.038V-141" transform="translate(624.545 201.565)" fill="#b76930"/>
      <path id="Trazado_103794" data-name="Trazado 103794" d="M-569.391-173v5.384c0,2.23-6.628,4.038-14.8,4.038s-14.8-1.808-14.8-4.038V-173" transform="translate(624.545 228.181)" fill="#c67736"/>
      <path id="Trazado_103795" data-name="Trazado 103795" d="M-569.391-205v5.384c0,2.23-6.628,4.038-14.8,4.038s-14.8-1.808-14.8-4.038V-205" transform="translate(624.545 254.798)" fill="#d5883e"/>
      <path id="Trazado_103796" data-name="Trazado 103796" d="M-569.391-237v5.384c0,2.23-6.628,4.038-14.8,4.038s-14.8-1.808-14.8-4.038V-237" transform="translate(624.545 281.414)" fill="#f4a93c"/>
      <path id="Trazado_103797" data-name="Trazado 103797" d="M-569.391-269v5.384c0,2.23-6.628,4.038-14.8,4.038s-14.8-1.808-14.8-4.038V-269" transform="translate(624.545 308.031)" fill="#f6b940"/>
      <ellipse id="Elipse_4098" data-name="Elipse 4098" cx="14.805" cy="4.038" rx="14.805" ry="4.038" transform="translate(25.545 34.993)" fill="#f9d266"/>
      <path id="Trazado_103798" data-name="Trazado 103798" d="M-484.308-381h32.3a2.692,2.692,0,0,1,2.692,2.692,5.384,5.384,0,0,1-5.384,5.384h-26.918A5.384,5.384,0,0,1-487-378.308,2.692,2.692,0,0,1-484.308-381Z" transform="translate(531.388 401.188)" fill="#686868"/>
      <path id="Trazado_103799" data-name="Trazado 103799" d="M-471-474.158v-16.151A2.692,2.692,0,0,1-468.308-493h26.918a2.692,2.692,0,0,1,2.692,2.692v16.151" transform="translate(518.079 494.346)" fill="#939393"/>
      <path id="Trazado_103800" data-name="Trazado 103800" d="M-439-447.541V-461h21.534v13.459" transform="translate(491.463 467.729)" fill="#b5b5b5"/>
      <path id="Trazado_103801" data-name="Trazado 103801" d="M-421.5-452.925V-461H-439v9.421h16.151A1.346,1.346,0,0,0-421.5-452.925Z" transform="translate(491.463 467.729)" fill="#ccc"/>
      <path id="Trazado_103802" data-name="Trazado 103802" d="M-382.925-292.925-391-284.849l8.075,8.075v-4.038h4.038a9.421,9.421,0,0,0,9.421-9.421V-301h-8.075v9.421a2.692,2.692,0,0,1-2.692,2.692h-2.692Z" transform="translate(451.538 334.647)" fill="#d23f34"/>
      <path id="Trazado_103803" data-name="Trazado 103803" d="M-617.541-476.849l8.075-8.075L-617.541-493v4.038h-4.038A9.421,9.421,0,0,0-631-479.541v10.767h8.075V-478.2a2.692,2.692,0,0,1,2.692-2.692h2.692Z" transform="translate(651.162 494.346)" fill="#d23f34"/>
      <path id="Trazado_103804" data-name="Trazado 103804" d="M-710.492-301c-6,0-16.151,1.133-16.151,5.384v10.141a12.044,12.044,0,0,0-15.427,7.221,12.044,12.044,0,0,0-.706,3.523,12.113,12.113,0,0,0-7.366,15.466,12.113,12.113,0,0,0,11.386,8.063h26.918a12.126,12.126,0,0,0,12.113-12.113c0-.4-.023-.808-.062-1.2,3.1-.824,5.445-2.14,5.445-4.18v-26.918C-694.341-299.867-704.493-301-710.492-301Zm0,2.692c7.976,0,12.9,1.72,13.44,2.692-.538.972-5.464,2.692-13.44,2.692-8.1,0-13.048-1.775-13.459-2.624v-.022c.41-.962,5.358-2.738,13.459-2.738Zm-13.459,5.892c3.428,1.658,9.393,2.183,13.459,2.183s10.036-.525,13.459-2.186v2.129c-.367.958-5.326,2.748-13.459,2.748s-13.091-1.79-13.459-2.692Zm26.926,7.51c-.376.958-5.334,2.748-13.467,2.748s-13.091-1.79-13.459-2.692v-2.183c3.428,1.658,9.393,2.183,13.459,2.183s10.036-.525,13.459-2.186Zm0,5.384c-.376.958-5.334,2.748-13.467,2.748s-13.091-1.79-13.459-2.692v-2.183c3.428,1.658,9.393,2.183,13.459,2.183s10.036-.525,13.459-2.186Zm0,5.384c-.376.958-5.334,2.748-13.467,2.748s-13.091-1.79-13.459-2.692v-2.183c3.428,1.658,9.393,2.183,13.459,2.183s10.036-.525,13.459-2.186Zm-5.392,10.824a9.432,9.432,0,0,1-9.421,9.421h-26.918a9.421,9.421,0,0,1-9.377-9.465,9.421,9.421,0,0,1,7.037-9.07,1.346,1.346,0,0,0,1.011-1.346l-.016-.307a9.384,9.384,0,0,1,9.346-9.421,9.384,9.384,0,0,1,4.113.931V-268.7c0,4.25,10.152,5.384,16.151,5.384a50.918,50.918,0,0,0,8.043-.635c.013.211.032.423.032.635Zm-8.075-2.692c-8.133,0-13.091-1.79-13.459-2.692v-2.183c3.428,1.658,9.393,2.183,13.459,2.183s10.036-.525,13.459-2.186v2.129C-697.4-267.8-702.359-266.007-710.492-266.007Z" transform="translate(750.842 334.647)"/>
      <path id="Trazado_103805" data-name="Trazado 103805" d="M-495-478.12a6.737,6.737,0,0,0,6.729,6.729h26.918a6.738,6.738,0,0,0,6.729-6.729,4.038,4.038,0,0,0-2.692-3.79v-15.052A4.038,4.038,0,0,0-461.353-501h-26.918a4.038,4.038,0,0,0-4.038,4.038v15.052A4.038,4.038,0,0,0-495-478.12Zm6.729-20.188h26.918a1.346,1.346,0,0,1,1.346,1.346v14.8H-462.7v-12.113a1.346,1.346,0,0,0-1.346-1.346h-21.534a1.346,1.346,0,0,0-1.346,1.346v12.113h-2.692v-14.8A1.346,1.346,0,0,1-488.271-498.308Zm22.88,16.151h-18.842v-10.767h18.842Zm-25.572,2.692h32.3a1.346,1.346,0,0,1,1.346,1.346,4.038,4.038,0,0,1-4.038,4.038h-26.918a4.038,4.038,0,0,1-4.038-4.038A1.346,1.346,0,0,1-490.962-479.466Z" transform="translate(538.042 501)"/>
      <path id="Trazado_103806" data-name="Trazado 103806" d="M-376.118-309h-8.075a1.346,1.346,0,0,0-1.346,1.346v9.421a1.346,1.346,0,0,1-1.346,1.346h-1.346v-2.692a1.346,1.346,0,0,0-1.346-1.346,1.346,1.346,0,0,0-.951.394l-8.075,8.075a1.346,1.346,0,0,0,0,1.9l8.075,8.075a1.346,1.346,0,0,0,1.9,0,1.345,1.345,0,0,0,.394-.951v-2.692h2.692a10.779,10.779,0,0,0,10.767-10.767v-10.767A1.346,1.346,0,0,0-376.118-309Zm-1.346,12.113a8.083,8.083,0,0,1-8.075,8.075h-4.038a1.346,1.346,0,0,0-1.346,1.346v.789l-4.826-4.826,4.826-4.826v.789a1.346,1.346,0,0,0,1.346,1.346h2.692a4.038,4.038,0,0,0,4.038-4.038v-8.075h5.384Z" transform="translate(458.191 341.301)"/>
      <path id="Trazado_103807" data-name="Trazado 103807" d="M-637.654-474.081h8.075a1.346,1.346,0,0,0,1.346-1.346v-9.421a1.346,1.346,0,0,1,1.346-1.346h1.346v2.692a1.346,1.346,0,0,0,1.346,1.346,1.346,1.346,0,0,0,.951-.394l8.075-8.075a1.346,1.346,0,0,0,0-1.9l-8.075-8.075a1.346,1.346,0,0,0-1.9,0,1.346,1.346,0,0,0-.394.951v2.692h-2.692A10.779,10.779,0,0,0-639-486.194v10.767A1.346,1.346,0,0,0-637.654-474.081Zm1.346-12.113a8.083,8.083,0,0,1,8.075-8.075h4.038a1.346,1.346,0,0,0,1.346-1.346v-.789l4.826,4.826-4.826,4.826v-.789a1.346,1.346,0,0,0-1.346-1.346h-2.692a4.038,4.038,0,0,0-4.038,4.038v8.075h-5.384Z" transform="translate(657.816 500.999)"/>
    </g>
  </g>
</svg>
