<svg xmlns="http://www.w3.org/2000/svg" width="138.277" height="138.277" viewBox="0 0 138.277 138.277">
  <g id="Grupo_54980" data-name="Grupo 54980" transform="translate(0 282.969)">
    <g id="Grupo_54973" data-name="Grupo 54973">
      <circle id="Elipse_4053" data-name="Elipse 4053" cx="69.138" cy="69.138" r="69.138" transform="translate(0 -282.969)" fill="#4276d5"/>
      <path id="Trazado_103025" data-name="Trazado 103025" d="M138.277-213.83a69.14,69.14,0,0,1-69.139,69.138A69.14,69.14,0,0,1,0-213.83a68.8,68.8,0,0,1,9.1-34.3A69.114,69.114,0,0,0,69.138-213.29a69.111,69.111,0,0,0,60.043-34.839A68.814,68.814,0,0,1,138.277-213.83Z" fill="#3366c2"/>
    </g>
    <g id="Grupo_54975" data-name="Grupo 54975">
      <g id="Grupo_54974" data-name="Grupo 54974">
        <path id="Trazado_103026" data-name="Trazado 103026" d="M96.1-261.753l-4.382,4.382a.066.066,0,0,1-.1-.006,29.04,29.04,0,0,0-2.062-2.291,28.766,28.766,0,0,0-2.35-2.109,28.331,28.331,0,0,0-17.831-6.25h0a28.323,28.323,0,0,0-17.829,6.25,28.92,28.92,0,0,0-2.349,2.109,28.216,28.216,0,0,0-2.059,2.294.066.066,0,0,1-.1.006l-4.385-4.388a.066.066,0,0,1-.006-.091q.987-1.176,2.091-2.279,1.124-1.123,2.326-2.133a34.6,34.6,0,0,1,22.311-8.074h0a34.575,34.575,0,0,1,22.31,8.077q1.2,1.005,2.329,2.13,1.1,1.1,2.091,2.282A.068.068,0,0,1,96.1-261.753Z" fill="#fff"/>
        <path id="Trazado_103027" data-name="Trazado 103027" d="M87.486-253.139l-4.417,4.421a.064.064,0,0,1-.1-.009A16.465,16.465,0,0,0,81-251.106a16.631,16.631,0,0,0-2.441-2.015,16.322,16.322,0,0,0-9.175-2.8h0a16.31,16.31,0,0,0-9.173,2.8,16.631,16.631,0,0,0-2.441,2.015,16.668,16.668,0,0,0-1.971,2.379.065.065,0,0,1-.1.012l-4.42-4.424a.063.063,0,0,1-.009-.088,22.564,22.564,0,0,1,2.041-2.335,22.964,22.964,0,0,1,2.382-2.076,22.537,22.537,0,0,1,13.69-4.585h0a22.546,22.546,0,0,1,13.693,4.585,22.861,22.861,0,0,1,2.382,2.076,22.907,22.907,0,0,1,2.042,2.335A.066.066,0,0,1,87.486-253.139Z" fill="#fff"/>
        <path id="Trazado_103028" data-name="Trazado 103028" d="M78.96-244.606l-1.945,1.941a3.059,3.059,0,0,1-4.355-.053.189.189,0,0,1-.024-.026,4.581,4.581,0,0,0-3.113-1.345c-.047,0-.1,0-.144,0h0c-.047,0-.091,0-.141,0a4.585,4.585,0,0,0-3.114,1.345l-.008.009a3.119,3.119,0,0,1-4.421.02l-1.9-1.9a.073.073,0,0,1-.011-.083,11.074,11.074,0,0,1,1.88-2.508,10.845,10.845,0,0,1,2.558-1.9,10.94,10.94,0,0,1,5.155-1.289,10.93,10.93,0,0,1,5.16,1.289,10.823,10.823,0,0,1,2.559,1.9,10.784,10.784,0,0,1,1.876,2.514A.073.073,0,0,1,78.96-244.606Z" fill="#fff"/>
      </g>
      <path id="Trazado_103029" data-name="Trazado 103029" d="M78.971-244.688a.072.072,0,0,1-.011.082l-1.945,1.942a3.059,3.059,0,0,1-4.355-.053.194.194,0,0,1-.024-.027,4.586,4.586,0,0,0-3.113-1.345c-.047,0-.1,0-.144,0h0v-6.3a10.93,10.93,0,0,1,5.16,1.289,10.818,10.818,0,0,1,2.559,1.9A10.8,10.8,0,0,1,78.971-244.688Z" fill="#d8d8d8"/>
      <path id="Trazado_103030" data-name="Trazado 103030" d="M87.5-253.227a.066.066,0,0,1-.009.088l-4.417,4.421a.064.064,0,0,1-.1-.009A16.465,16.465,0,0,0,81-251.106a16.631,16.631,0,0,0-2.441-2.015,16.322,16.322,0,0,0-9.175-2.8h0v-6.307h0a22.555,22.555,0,0,1,13.693,4.585,23.1,23.1,0,0,1,2.382,2.077A23.02,23.02,0,0,1,87.5-253.227Z" fill="#d8d8d8"/>
      <path id="Trazado_103031" data-name="Trazado 103031" d="M96.1-261.753l-4.382,4.382a.066.066,0,0,1-.1-.006,29.04,29.04,0,0,0-2.062-2.291,28.766,28.766,0,0,0-2.35-2.109,28.331,28.331,0,0,0-17.831-6.25h0v-6.306h0a34.573,34.573,0,0,1,22.31,8.077q1.2,1.005,2.33,2.129,1.1,1.1,2.091,2.283A.069.069,0,0,1,96.1-261.753Z" fill="#d8d8d8"/>
    </g>
    <g id="Grupo_54979" data-name="Grupo 54979">
      <g id="Grupo_54977" data-name="Grupo 54977">
        <g id="Grupo_54976" data-name="Grupo 54976">
          <path id="Trazado_103032" data-name="Trazado 103032" d="M104.688-212.677v58.155a68.807,68.807,0,0,1-35.55,9.83,68.806,68.806,0,0,1-35.549-9.83v-76.936H85.907Z" fill="#ffd112"/>
          <path id="Trazado_103033" data-name="Trazado 103033" d="M85.906-231.459v18.781h18.781Z" fill="#ff9f00"/>
          <path id="Trazado_103034" data-name="Trazado 103034" d="M69.138-231.458v86.766a68.806,68.806,0,0,1-35.549-9.83v-76.936Z" fill="#ffe955"/>
        </g>
        <rect id="Rectángulo_5336" data-name="Rectángulo 5336" width="49.565" height="7.324" transform="translate(44.355 -194.238)" fill="#323b5a"/>
        <rect id="Rectángulo_5337" data-name="Rectángulo 5337" width="49.565" height="7.32" transform="translate(44.355 -179.593)" fill="#323b5a"/>
        <rect id="Rectángulo_5338" data-name="Rectángulo 5338" width="49.565" height="7.32" transform="translate(44.355 -164.95)" fill="#323b5a"/>
        <rect id="Rectángulo_5339" data-name="Rectángulo 5339" width="24.783" height="7.324" transform="translate(44.355 -194.238)" fill="#474f6f"/>
        <rect id="Rectángulo_5340" data-name="Rectángulo 5340" width="24.783" height="7.32" transform="translate(44.355 -179.593)" fill="#474f6f"/>
        <rect id="Rectángulo_5341" data-name="Rectángulo 5341" width="24.783" height="7.32" transform="translate(44.355 -164.95)" fill="#474f6f"/>
      </g>
      <g id="Grupo_54978" data-name="Grupo 54978">
        <path id="Trazado_103035" data-name="Trazado 103035" d="M64.836-224.609v24.856a1.921,1.921,0,0,1-1.92,1.92,1.919,1.919,0,0,1-1.92-1.92v-24.856a6.374,6.374,0,0,0-6.366-6.366h-.083a6.372,6.372,0,0,0-6.283,6.365v16.571a6.371,6.371,0,0,0,6.283,6.364h.083a.836.836,0,0,0,.836-.837v-21.954a.941.941,0,0,0-.919-.94h-.021a.941.941,0,0,0-.939.94v16.486a1.922,1.922,0,0,1-1.92,1.92,1.92,1.92,0,0,1-1.92-1.92v-16.486a4.786,4.786,0,0,1,4.78-4.78h.02a4.786,4.786,0,0,1,4.759,4.78v21.954a4.681,4.681,0,0,1-4.676,4.677h-.083a10.217,10.217,0,0,1-10.123-10.2v-16.571a10.216,10.216,0,0,1,10.123-10.205h.083A10.218,10.218,0,0,1,64.836-224.609Z" fill="#474f6f"/>
        <path id="Trazado_103036" data-name="Trazado 103036" d="M59.306-224.464v21.954a4.681,4.681,0,0,1-4.676,4.677h-.083v-3.84h.083a.836.836,0,0,0,.836-.837v-21.954a.941.941,0,0,0-.919-.94v-3.84A4.786,4.786,0,0,1,59.306-224.464Z" fill="#323b5a"/>
        <path id="Trazado_103037" data-name="Trazado 103037" d="M64.836-224.609v24.856a1.921,1.921,0,0,1-1.92,1.92,1.919,1.919,0,0,1-1.92-1.92v-24.856a6.374,6.374,0,0,0-6.366-6.366h-.083v-3.84h.083A10.218,10.218,0,0,1,64.836-224.609Z" fill="#323b5a"/>
      </g>
    </g>
  </g>
</svg>
