<svg xmlns="http://www.w3.org/2000/svg" width="138.277" height="138.277" viewBox="0 0 138.277 138.277">
  <g id="Grupo_54990" data-name="Grupo 54990" transform="translate(-319.776 308.8)">
    <g id="Grupo_54981" data-name="Grupo 54981">
      <circle id="Elipse_4054" data-name="Elipse 4054" cx="69.138" cy="69.138" r="69.138" transform="translate(319.776 -308.8)" fill="#4276d5"/>
      <path id="Trazado_103038" data-name="Trazado 103038" d="M458.053-239.662a69.141,69.141,0,0,1-69.139,69.139,69.14,69.14,0,0,1-69.138-69.139,68.809,68.809,0,0,1,9.1-34.3,69.111,69.111,0,0,0,60.042,34.84,69.107,69.107,0,0,0,60.042-34.84A68.81,68.81,0,0,1,458.053-239.662Z" fill="#3366c2"/>
    </g>
    <g id="Grupo_54989" data-name="Grupo 54989">
      <g id="Grupo_54986" data-name="Grupo 54986">
        <g id="Grupo_54983" data-name="Grupo 54983">
          <g id="Grupo_54982" data-name="Grupo 54982">
            <path id="Trazado_103039" data-name="Trazado 103039" d="M400.006-245.874v50.291H347.414v-64.184h38.7Z" fill="#ffd112"/>
            <path id="Trazado_103040" data-name="Trazado 103040" d="M386.113-259.767v13.893h13.893Z" fill="#ff9f00"/>
            <rect id="Rectángulo_5342" data-name="Rectángulo 5342" width="26.296" height="64.184" transform="translate(347.414 -259.767)" fill="#ffe955"/>
          </g>
          <rect id="Rectángulo_5343" data-name="Rectángulo 5343" width="36.666" height="5.416" transform="translate(355.377 -232.234)" fill="#474f6f"/>
          <rect id="Rectángulo_5344" data-name="Rectángulo 5344" width="36.666" height="5.416" transform="translate(355.377 -221.401)" fill="#474f6f"/>
          <rect id="Rectángulo_5345" data-name="Rectángulo 5345" width="36.666" height="5.416" transform="translate(355.377 -210.569)" fill="#474f6f"/>
        </g>
        <g id="Grupo_54985" data-name="Grupo 54985">
          <g id="Grupo_54984" data-name="Grupo 54984">
            <path id="Trazado_103041" data-name="Trazado 103041" d="M386.088-264.173v50.291H333.5v-64.184h38.7Z" fill="#d0f6ff"/>
            <path id="Trazado_103042" data-name="Trazado 103042" d="M372.195-278.066v13.893h13.893Z" fill="#8fc9f7"/>
            <rect id="Rectángulo_5346" data-name="Rectángulo 5346" width="26.296" height="64.184" transform="translate(333.495 -278.065)" fill="#fff"/>
          </g>
          <rect id="Rectángulo_5347" data-name="Rectángulo 5347" width="36.665" height="5.418" transform="translate(341.459 -250.532)" fill="#323b5a"/>
          <rect id="Rectángulo_5348" data-name="Rectángulo 5348" width="36.665" height="5.415" transform="translate(341.459 -239.7)" fill="#323b5a"/>
          <rect id="Rectángulo_5349" data-name="Rectángulo 5349" width="36.665" height="5.415" transform="translate(341.459 -228.867)" fill="#323b5a"/>
          <rect id="Rectángulo_5350" data-name="Rectángulo 5350" width="18.332" height="5.418" transform="translate(341.459 -250.532)" fill="#474f6f"/>
          <rect id="Rectángulo_5351" data-name="Rectángulo 5351" width="18.332" height="5.415" transform="translate(341.459 -239.7)" fill="#474f6f"/>
          <rect id="Rectángulo_5352" data-name="Rectángulo 5352" width="18.332" height="5.415" transform="translate(341.459 -228.867)" fill="#474f6f"/>
        </g>
      </g>
      <g id="Grupo_54988" data-name="Grupo 54988">
        <rect id="Rectángulo_5353" data-name="Rectángulo 5353" width="6.938" height="43.959" transform="translate(420.937 -230.359)" fill="#474f6f"/>
        <rect id="Rectángulo_5354" data-name="Rectángulo 5354" width="3.469" height="43.959" transform="translate(424.406 -230.359)" fill="#323b5a"/>
        <g id="Grupo_54987" data-name="Grupo 54987">
          <path id="Trazado_103043" data-name="Trazado 103043" d="M443.522-229.384a19.118,19.118,0,0,1-19.07,19.116h-.046a19.117,19.117,0,0,1-19.116-19.116A19.117,19.117,0,0,1,424.406-248.5h.046A19.118,19.118,0,0,1,443.522-229.384Z" fill="#474f6f"/>
          <path id="Trazado_103044" data-name="Trazado 103044" d="M443.522-229.384a19.118,19.118,0,0,1-19.07,19.116,21.054,21.054,0,0,1-12.224-19.116A21.054,21.054,0,0,1,424.452-248.5,19.118,19.118,0,0,1,443.522-229.384Z" fill="#323b5a"/>
          <path id="Trazado_103045" data-name="Trazado 103045" d="M443.522-229.384a19.117,19.117,0,0,1-19.116,19.116V-248.5A19.117,19.117,0,0,1,443.522-229.384Z" fill="#20273a"/>
          <path id="Trazado_103046" data-name="Trazado 103046" d="M436.584-229.384a12.178,12.178,0,0,1-11.96,12.176c-.072,0-.146,0-.218,0a12.179,12.179,0,0,1-12.179-12.178,12.179,12.179,0,0,1,12.179-12.178c.072,0,.146,0,.218,0A12.177,12.177,0,0,1,436.584-229.384Z" fill="#fff"/>
          <path id="Trazado_103047" data-name="Trazado 103047" d="M436.584-229.384a12.178,12.178,0,0,1-11.96,12.176,14.883,14.883,0,0,1-6.307-12.176,14.883,14.883,0,0,1,6.307-12.176A12.177,12.177,0,0,1,436.584-229.384Z" fill="#d0f6ff"/>
          <path id="Trazado_103048" data-name="Trazado 103048" d="M436.584-229.384a12.178,12.178,0,0,1-12.178,12.178v-24.356A12.178,12.178,0,0,1,436.584-229.384Z" fill="#8fc9f7"/>
        </g>
        <path id="Trazado_103049" data-name="Trazado 103049" d="M430.494-202.043v17.622a68.85,68.85,0,0,1-6.087,4.1,68.063,68.063,0,0,1-6.09,3.247v-24.971Z" fill="#ffd112"/>
        <path id="Trazado_103050" data-name="Trazado 103050" d="M430.494-202.043v17.622a68.85,68.85,0,0,1-6.087,4.1v-21.724Z" fill="#ff9f00"/>
      </g>
    </g>
  </g>
</svg>
