<svg xmlns="http://www.w3.org/2000/svg" width="138.277" height="138.277" viewBox="0 0 138.277 138.277">
  <g id="Grupo_55065" data-name="Grupo 55065" transform="translate(74.496 520.022)">
    <path id="Trazado_103058" data-name="Trazado 103058" d="M63.781-450.883A69.141,69.141,0,0,1-5.358-381.745a68.782,68.782,0,0,1-35.414-9.75L-64.66-415.323a68.816,68.816,0,0,1-9.836-35.56A69.14,69.14,0,0,1-5.358-520.022a69.141,69.141,0,0,1,69.139,69.139Z" fill="#4276d5"/>
    <path id="Trazado_103059" data-name="Trazado 103059" d="M63.781-450.883a69.065,69.065,0,0,1-29.708,56.8,68.824,68.824,0,0,1-39.431,12.34,68.817,68.817,0,0,1-35.409-9.744l0,0L-64.658-415.32A68.809,68.809,0,0,1-74.5-450.883a68.81,68.81,0,0,1,9.1-34.3,69.111,69.111,0,0,0,60.042,34.84,69.11,69.11,0,0,0,60.043-34.84,68.82,68.82,0,0,1,9.1,34.3Z" fill="#3366c2"/>
    <path id="Trazado_103060" data-name="Trazado 103060" d="M13.7-488.224v99.452a7,7,0,0,1-2,4.907,69.233,69.233,0,0,1-17.055,2.12c-.367,0-.734,0-1.1-.011A68.844,68.844,0,0,1-30.4-386.423a69.144,69.144,0,0,1-10.365-5.066l-23.9-23.842A68.834,68.834,0,0,1-74.5-450.883a68.859,68.859,0,0,1,16.112-44.368h25.463a2.519,2.519,0,0,0,2.519,2.52,2.52,2.52,0,0,0,2.523-2.52H6.668a7.026,7.026,0,0,1,7.028,7.027Z" fill="#ffe955"/>
    <path id="Trazado_103061" data-name="Trazado 103061" d="M13.7-488.224v99.452a7,7,0,0,1-2,4.907,69.233,69.233,0,0,1-17.055,2.12A68.911,68.911,0,0,1-30.4-386.423V-492.731a2.52,2.52,0,0,0,2.523-2.52H6.668a7.026,7.026,0,0,1,7.028,7.027Z" fill="#ffd112"/>
    <path id="Trazado_103062" data-name="Trazado 103062" d="M3.868-482.737v91.248H-40.767a69.473,69.473,0,0,1-23.9-23.842v-67.406a2.77,2.77,0,0,1,2.77-2.77h63a2.77,2.77,0,0,1,2.77,2.77Z" fill="#fff"/>
    <path id="Trazado_103063" data-name="Trazado 103063" d="M3.868-482.736v91.246H-30.4v-94.016H1.1a2.77,2.77,0,0,1,2.77,2.77Z" fill="#d1f6ff"/>
    <path id="Trazado_103064" data-name="Trazado 103064" d="M-20.891-495.251a3.524,3.524,0,0,1-3.327-2.264,6.586,6.586,0,0,0-6.182-4.319,6.586,6.586,0,0,0-6.184,4.319,3.524,3.524,0,0,1-3.326,2.264h-5.7a2.649,2.649,0,0,0-2.649,2.649v8.932a5.664,5.664,0,0,0,5.664,5.665h24.385a5.664,5.664,0,0,0,5.664-5.664V-492.6a2.65,2.65,0,0,0-2.649-2.649Zm-9.51,2.521a2.52,2.52,0,0,1-2.52-2.521,2.52,2.52,0,0,1,2.52-2.52,2.52,2.52,0,0,1,2.521,2.52A2.52,2.52,0,0,1-30.4-492.73Z" fill="#374c81"/>
    <path id="Trazado_103065" data-name="Trazado 103065" d="M-12.544-492.6v8.932a5.665,5.665,0,0,1-5.665,5.665H-30.4V-492.73a2.52,2.52,0,0,0,2.521-2.521,2.52,2.52,0,0,0-2.521-2.52v-4.062a6.585,6.585,0,0,1,6.183,4.319,3.524,3.524,0,0,0,3.326,2.263h5.7a2.649,2.649,0,0,1,2.649,2.649Z" fill="#323b5a"/>
    <g id="Grupo_55063" data-name="Grupo 55063">
      <path id="Trazado_103066" data-name="Trazado 103066" d="M-6-456.3H-26.76a3.641,3.641,0,0,1-3.641-3.641,3.641,3.641,0,0,1,3.641-3.641H-6a3.641,3.641,0,0,1,3.641,3.641A3.641,3.641,0,0,1-6-456.3Z" fill="#374c81"/>
      <path id="Trazado_103067" data-name="Trazado 103067" d="M-6-441.74H-26.76a3.641,3.641,0,0,1-3.641-3.641,3.641,3.641,0,0,1,3.641-3.641H-6a3.641,3.641,0,0,1,3.641,3.641A3.641,3.641,0,0,1-6-441.74Z" fill="#374c81"/>
      <path id="Trazado_103068" data-name="Trazado 103068" d="M-6-427.175H-26.76a3.641,3.641,0,0,1-3.641-3.641,3.641,3.641,0,0,1,3.641-3.641H-6a3.641,3.641,0,0,1,3.641,3.641A3.641,3.641,0,0,1-6-427.175Z" fill="#374c81"/>
      <path id="Trazado_103069" data-name="Trazado 103069" d="M-6-412.611H-26.76a3.641,3.641,0,0,1-3.641-3.641,3.641,3.641,0,0,1,3.641-3.641H-6a3.641,3.641,0,0,1,3.641,3.641A3.641,3.641,0,0,1-6-412.611Z" fill="#374c81"/>
    </g>
    <path id="Trazado_103070" data-name="Trazado 103070" d="M-52.1-453.993l-7.892-7.892,4.438-4.438,3.454,3.453,9.013-9.012,4.438,4.438Z" fill="#369cef"/>
    <path id="Trazado_103071" data-name="Trazado 103071" d="M-52.1-433.615l-7.892-7.893,4.438-4.437,3.454,3.453,9.013-9.012,4.438,4.438Z" fill="#369cef"/>
    <path id="Trazado_103072" data-name="Trazado 103072" d="M-52.1-413.237l-7.892-7.893,4.438-4.438,3.454,3.454,9.013-9.012,4.438,4.438Z" fill="#369cef"/>
    <g id="Grupo_55064" data-name="Grupo 55064">
      <path id="Trazado_103039" data-name="Trazado 103039" d="M18.936-411.175c-1.671,4.736-3.3,11.137-7.74,14.091-1.611-5.069,1.132-11.109,2.793-15.834Z" fill="#4e689b"/>
      <path id="Trazado_103040" data-name="Trazado 103040" d="M18.936-411.173c-1.67,4.736-3.3,11.138-7.74,14.092-.028-4.944,2.426-10.774,4.029-15.4Z" fill="#374c81"/>
      <path id="Trazado_103041" data-name="Trazado 103041" d="M18.936-411.174c-1.67,4.736-3.3,11.138-7.74,14.092l5.267-14.963Z" fill="#323b5a"/>
      <path id="Trazado_103042" data-name="Trazado 103042" d="M34.356-442.579A251.688,251.688,0,0,1,18.3-406.3l-6.877-2.421c4.207-22.909,10.018-38.526,18.89-61.79,3.971-7.539,3.386-17.456,12.236-15.672a5.77,5.77,0,0,1,.786.343c6.762,4.847.507,11.241-1.062,19.538-2.847,8.888-6.324,19.174-7.925,23.721Z" fill="#ffe400"/>
      <path id="Trazado_103043" data-name="Trazado 103043" d="M34.356-442.578A251.682,251.682,0,0,1,18.3-406.3l-5.165-1.818c5.756-21.8,11.656-38.2,20.155-61.343,3.371-6.666,3.519-16.013,9.258-16.722.282.076.48.35.786.343,6.762,4.847.507,11.241-1.062,19.538-2.847,8.888-6.324,19.174-7.925,23.721Z" fill="#fed110"/>
      <path id="Trazado_103044" data-name="Trazado 103044" d="M34.356-442.578A251.687,251.687,0,0,1,18.3-406.3l-3.437-1.21,27.69-78.671c8.021,4.147,1.351,11.518-.275,19.881C39.434-457.414,35.958-447.128,34.356-442.578Z" fill="#fcbf12"/>
      <path id="Trazado_103045" data-name="Trazado 103045" d="M42.281-466.3,30.32-470.514c3.967-7.53,3.389-17.463,12.236-15.672,8.022,4.175,1.352,11.5-.276,19.88Z" fill="#ffe400"/>
      <path id="Trazado_103046" data-name="Trazado 103046" d="M42.281-466.3l-8.987-3.164c3.367-6.651,3.524-16.025,9.26-16.722,8.012,4.174,1.364,11.49-.275,19.881Z" fill="#fed110"/>
      <path id="Trazado_103047" data-name="Trazado 103047" d="M42.281-466.3,36.3-468.407l6.257-17.776C50.578-482.036,43.907-474.665,42.281-466.3Z" fill="#fcbf12"/>
      <path id="Trazado_103048" data-name="Trazado 103048" d="M48.282-465.313,39.054-439.1c-.356,1.546-3.487,3.634-4.154,1.379-.117-.581,8.712-24.749,8.794-25.3l-14.365-5.056a1.574,1.574,0,0,1-.961-2.006c.438-1.18.891-3.639,2.709-2.961l16.246,5.718A1.574,1.574,0,0,1,48.282-465.313Z" fill="#4e689b"/>
      <path id="Trazado_103049" data-name="Trazado 103049" d="M48.282-465.313,39.054-439.1c-.356,1.546-3.487,3.634-4.154,1.379-.117-.581,8.712-24.749,8.794-25.3l-8.273-2.91L37.17-470.9c1.12.915,12.559,2.962,11.107,5.576Z" fill="#374c81"/>
      <path id="Trazado_103050" data-name="Trazado 103050" d="M42.468-459.543l1.211-3.438L47.04-461.8l-1.21,3.438Z" fill="#323b5a"/>
    </g>
  </g>
</svg>
