<svg xmlns="http://www.w3.org/2000/svg" xmlns:xlink="http://www.w3.org/1999/xlink" width="141" height="141" viewBox="0 0 141 141">
  <defs>
    <filter id="Elipse_4069" x="0" y="0" width="141" height="141" filterUnits="userSpaceOnUse">
      <feOffset dy="3" input="SourceAlpha"/>
      <feGaussianBlur stdDeviation="3" result="blur"/>
      <feFlood flood-opacity="0.161"/>
      <feComposite operator="in" in2="blur"/>
      <feComposite in="SourceGraphic"/>
    </filter>
  </defs>
  <g id="Grupo_55501" data-name="Grupo 55501" transform="translate(-281 -2592)">
    <g transform="matrix(1, 0, 0, 1, 281, 2592)" filter="url(#Elipse_4069)">
      <circle id="Elipse_4069-2" data-name="Elipse 4069" cx="61.5" cy="61.5" r="61.5" transform="translate(9 6)" fill="#ff0062"/>
    </g>
    <g id="Grupo_55286" data-name="Grupo 55286" transform="translate(325 2626.68)">
      <g id="Grupo_55285" data-name="Grupo 55285" transform="translate(0 0)">
        <g id="Grupo_55284" data-name="Grupo 55284">
          <path id="Trazado_103260" data-name="Trazado 103260" d="M496.786,141.949h.031a1.325,1.325,0,0,0,0-2.649h-.031a1.325,1.325,0,1,0,0,2.649Z" transform="translate(-475.487 -128.809)" fill="#fff"/>
          <path id="Trazado_103261" data-name="Trazado 103261" d="M486.984,501.815h-.031a1.325,1.325,0,0,0,0,2.649h.031a1.325,1.325,0,0,0,0-2.649Z" transform="translate(-466.864 -446.739)" fill="#fff"/>
          <path id="Trazado_103262" data-name="Trazado 103262" d="M386.781,501.811H377.03a1.325,1.325,0,1,0,0,2.649h9.752a1.325,1.325,0,0,0,0-2.649Z" transform="translate(-370.46 -446.735)" fill="#fff"/>
          <path id="Trazado_103263" data-name="Trazado 103263" d="M385.126,54h-45.5a1.325,1.325,0,0,0-1.325,1.325v3.921h-3.92a1.325,1.325,0,0,0-1.325,1.325v55.076a1.325,1.325,0,0,0,1.325,1.325h45.5a1.325,1.325,0,0,0,1.325-1.325v-3.921h3.921a1.325,1.325,0,0,0,1.325-1.325V55.325A1.325,1.325,0,0,0,385.126,54Zm-6.57,60.321H335.708V61.895h30.875v2.6h-8.427a1.325,1.325,0,0,0,0,2.649h8.427v5.4a1.325,1.325,0,0,0,1.325,1.325h10.649Zm-9.324-43.1V63.768l3.725,3.725,3.725,3.726ZM383.8,109.076h-2.6V72.6c0-.018,0-.035,0-.053a1.322,1.322,0,0,0-.439-.985L368.845,59.633a1.318,1.318,0,0,0-.134-.115l-.035-.026a1.354,1.354,0,0,0-.145-.091l-.009,0a1.33,1.33,0,0,0-.148-.065l-.042-.015a1.332,1.332,0,0,0-.163-.045h-.006a1.307,1.307,0,0,0-.162-.02l-.048,0-.043,0H340.953v-2.6H383.8v52.426Z" transform="translate(-333.059 -54)" fill="#fff"/>
          <path id="Trazado_103264" data-name="Trazado 103264" d="M460.876,249.015a39.082,39.082,0,0,1-9.271-3.932,1.324,1.324,0,0,0-1.347,0,37.476,37.476,0,0,1-9.271,3.932,1.325,1.325,0,0,0-.974,1.278v5.087a15.446,15.446,0,0,0,4.692,11.283c2.243,2.2,4.978,3.557,6.227,3.557s3.984-1.36,6.227-3.557a15.445,15.445,0,0,0,4.693-11.283v-5.087A1.325,1.325,0,0,0,460.876,249.015Zm-9.945,18.552a12.829,12.829,0,0,1-8.27-12.187v-4.09a39.94,39.94,0,0,0,8.271-3.537,41.408,41.408,0,0,0,8.269,3.536v4.091h0A12.829,12.829,0,0,1,450.931,267.566Z" transform="translate(-426.858 -221.42)" fill="#fff"/>
          <path id="Trazado_103265" data-name="Trazado 103265" d="M491.932,314l-4.835,4.835-1.93-1.93a1.325,1.325,0,1,0-1.873,1.873l2.866,2.866a1.324,1.324,0,0,0,1.873,0l5.772-5.772A1.325,1.325,0,0,0,491.932,314Z" transform="translate(-464.476 -281.683)" fill="#fff"/>
        </g>
      </g>
    </g>
  </g>
</svg>
