<svg xmlns="http://www.w3.org/2000/svg" xmlns:xlink="http://www.w3.org/1999/xlink" width="141" height="141" viewBox="0 0 141 141">
  <defs>
    <filter id="Elipse_4068" x="0" y="0" width="141" height="141" filterUnits="userSpaceOnUse">
      <feOffset dy="3" input="SourceAlpha"/>
      <feGaussianBlur stdDeviation="3" result="blur"/>
      <feFlood flood-opacity="0.161"/>
      <feComposite operator="in" in2="blur"/>
      <feComposite in="SourceGraphic"/>
    </filter>
  </defs>
  <g id="Grupo_55502" data-name="Grupo 55502" transform="translate(-281 -2851)">
    <g transform="matrix(1, 0, 0, 1, 281, 2851)" filter="url(#Elipse_4068)">
      <circle id="Elipse_4068-2" data-name="Elipse 4068" cx="61.5" cy="61.5" r="61.5" transform="translate(9 6)" fill="#ff0062"/>
    </g>
    <g id="Grupo_55283" data-name="Grupo 55283" transform="translate(325 2888.514)">
      <g id="Grupo_55282" data-name="Grupo 55282" transform="translate(0 0)">
        <g id="Grupo_55281" data-name="Grupo 55281">
          <path id="Trazado_103254" data-name="Trazado 103254" d="M387.408,156.873a104.747,104.747,0,0,1-25.2-10.69,1.324,1.324,0,0,0-1.347,0,101.879,101.879,0,0,1-25.2,10.69,1.324,1.324,0,0,0-.975,1.278v13.534A38.936,38.936,0,0,0,346.5,200.133c5.807,5.69,12.571,8.837,15.027,8.837s9.22-3.147,15.027-8.837a38.936,38.936,0,0,0,11.823-28.448V158.151A1.324,1.324,0,0,0,387.408,156.873Zm-1.675,14.812a36.339,36.339,0,0,1-11.028,26.556c-5.711,5.6-11.816,8.08-13.173,8.08s-7.463-2.484-13.173-8.08a36.34,36.34,0,0,1-11.028-26.556V159.156a104.322,104.322,0,0,0,24.2-10.3,107.621,107.621,0,0,0,24.2,10.3Z" transform="translate(-334.681 -146)" fill="#fff"/>
          <path id="Trazado_103255" data-name="Trazado 103255" d="M387.192,245.783a1.324,1.324,0,0,0-1.718-.747c-2.366.932-4.8,1.791-7.219,2.551a1.325,1.325,0,0,0-.928,1.264v5.115a1.325,1.325,0,1,0,2.649,0v-4.147c2.174-.7,4.346-1.482,6.469-2.318A1.324,1.324,0,0,0,387.192,245.783Z" transform="translate(-372.082 -232.774)" fill="#fff"/>
          <path id="Trazado_103256" data-name="Trazado 103256" d="M468.53,234.862a1.325,1.325,0,0,0,.531-.111l.024-.011a1.325,1.325,0,1,0-1.07-2.424l-.021.009a1.324,1.324,0,0,0,.535,2.536Z" transform="translate(-450.904 -221.603)" fill="#fff"/>
          <path id="Trazado_103257" data-name="Trazado 103257" d="M610.292,491.744a1.325,1.325,0,0,0-1.833.384,32.235,32.235,0,0,1-3.807,4.755,33.829,33.829,0,0,1-3.8,3.38,1.325,1.325,0,1,0,1.606,2.107,36.519,36.519,0,0,0,4.1-3.646,34.853,34.853,0,0,0,4.12-5.147A1.324,1.324,0,0,0,610.292,491.744Z" transform="translate(-567.659 -449.032)" fill="#fff"/>
          <path id="Trazado_103258" data-name="Trazado 103258" d="M574.3,578.148l-.076.045a1.324,1.324,0,1,0,1.327,2.292l.088-.052a1.324,1.324,0,1,0-1.339-2.286Z" transform="translate(-544.184 -524.839)" fill="#fff"/>
          <path id="Trazado_103259" data-name="Trazado 103259" d="M427.172,310.367a4.307,4.307,0,0,0-6.091,6.092l7.822,7.821a4.308,4.308,0,0,0,6.091,0l16.328-16.328a4.307,4.307,0,0,0-6.092-6.091l-13.282,13.282Zm19.931-6.633a1.658,1.658,0,1,1,2.345,2.345L433.12,322.406a1.659,1.659,0,0,1-2.345,0l-7.821-7.821a1.658,1.658,0,0,1,2.345-2.345l5.712,5.712a1.325,1.325,0,0,0,1.873,0Z" transform="translate(-409.35 -281.585)" fill="#fff"/>
        </g>
      </g>
    </g>
  </g>
</svg>
