<svg xmlns="http://www.w3.org/2000/svg" xmlns:xlink="http://www.w3.org/1999/xlink" width="158" height="158" viewBox="0 0 158 158">
  <defs>
    <radialGradient id="radial-gradient" cx="0.5" cy="0.5" r="0.5" gradientUnits="objectBoundingBox">
      <stop offset="0" stop-color="#fff"/>
      <stop offset="1" stop-color="#a7beff"/>
    </radialGradient>
    <filter id="Trazado_103890" x="0" y="0" width="158" height="158" filterUnits="userSpaceOnUse">
      <feOffset dy="3" input="SourceAlpha"/>
      <feGaussianBlur stdDeviation="3" result="blur"/>
      <feFlood flood-opacity="0.161"/>
      <feComposite operator="in" in2="blur"/>
      <feComposite in="SourceGraphic"/>
    </filter>
  </defs>
  <g id="Grupo_55506" data-name="Grupo 55506" transform="translate(-409 -1888)">
    <g transform="matrix(1, 0, 0, 1, 409, 1888)" filter="url(#Trazado_103890)">
      <path id="Trazado_103890-2" data-name="Trazado 103890" d="M70,0A70,70,0,1,1,0,70,70,70,0,0,1,70,0Z" transform="translate(9 6)" fill="url(#radial-gradient)"/>
    </g>
    <g id="Grupo_55496" data-name="Grupo 55496" transform="translate(446 1922)">
      <path id="Trazado_103858" data-name="Trazado 103858" d="M793.795-109h26.918a13.459,13.459,0,0,1,13.459,13.459H780.336A13.459,13.459,0,0,1,793.795-109Z" transform="translate(-764.185 177.64)" fill="#3b5892"/>
      <path id="Trazado_103859" data-name="Trazado 103859" d="M831.672-103.616v-4.256A13.4,13.4,0,0,0,826.289-109H799.371a13.459,13.459,0,0,0-12.331,8.075H828.98A2.692,2.692,0,0,0,831.672-103.616Z" transform="translate(-769.761 177.64)" fill="#4c6cb5"/>
      <path id="Trazado_103860" data-name="Trazado 103860" d="M919.1-132.488a12.059,12.059,0,0,1-5.384,1.26h0a12.058,12.058,0,0,1-5.384-1.26h0v3.952a5.384,5.384,0,0,0,5.384,5.384h0a5.384,5.384,0,0,0,5.384-5.384Z" transform="translate(-870.651 197.177)" fill="#f2b9a1"/>
      <path id="Trazado_103861" data-name="Trazado 103861" d="M872.6-343.466h2.692l1.156-5.778a9.808,9.808,0,0,0,.19-1.922h0a9.8,9.8,0,0,0-9.8-9.8h-2.989a2.019,2.019,0,0,1-2.019-2.019h0A2.019,2.019,0,0,0,859.814-365h-4.172a11.305,11.305,0,0,0-11.305,11.305h0a11.347,11.347,0,0,0,.113,1.6l1.233,8.63h2.692v-1.25a6.729,6.729,0,0,1,1.97-4.758l3.808-3.808a3.249,3.249,0,0,1,2.3-.952h0a3.249,3.249,0,0,1,2.3.952l4.336,4.336a2.04,2.04,0,0,0,2.883,0h0a2.039,2.039,0,0,1,2.665-.19l2.892,2.17a2.692,2.692,0,0,1,1.077,2.153Z" transform="translate(-817.418 390.572)" fill="#976947"/>
      <path id="Trazado_103862" data-name="Trazado 103862" d="M892.562-291.579v8.075a12.113,12.113,0,0,1-12.113,12.113h0A12.113,12.113,0,0,1,868.336-283.5v-7.98a6.73,6.73,0,0,1,1.97-4.758l3.808-3.808a3.249,3.249,0,0,1,2.3-.952h0a3.249,3.249,0,0,1,2.3.952l4.337,4.336a2.04,2.04,0,0,0,2.883,0h0a2.039,2.039,0,0,1,2.665-.19l2.892,2.17A2.692,2.692,0,0,1,892.562-291.579Z" transform="translate(-837.381 337.339)" fill="#fbe1ca"/>
      <path id="Trazado_103863" data-name="Trazado 103863" d="M835.065-237h-2.692a4.038,4.038,0,0,0-4.038,4.038h0a4.038,4.038,0,0,0,4.038,4.038h2.692" transform="translate(-804.11 284.106)" fill="#f2b9a1"/>
      <path id="Trazado_103864" data-name="Trazado 103864" d="M1012.336-237h2.692a4.038,4.038,0,0,1,4.038,4.038h0a4.038,4.038,0,0,1-4.038,4.038h-2.692" transform="translate(-957.155 284.106)" fill="#f2b9a1"/>
      <path id="Trazado_103865" data-name="Trazado 103865" d="M721.946-491.5v-5.384h-3a12.033,12.033,0,0,0-1.556-3.748l2.125-2.125-3.806-3.806-2.125,2.125A12.034,12.034,0,0,0,709.833-506v-3h-5.384v3a12.034,12.034,0,0,0-3.748,1.556l-2.125-2.125-3.806,3.806,2.125,2.125a12.032,12.032,0,0,0-1.556,3.748h-3v5.384h3a12.032,12.032,0,0,0,1.556,3.748l-2.125,2.125,3.806,3.806,2.125-2.125a12.033,12.033,0,0,0,3.748,1.556v3h5.384v-3a12.033,12.033,0,0,0,3.748-1.556l2.125,2.125,3.806-3.806-2.125-2.125a12.033,12.033,0,0,0,1.556-3.748Zm-14.8,4.038a6.729,6.729,0,0,1-6.729-6.729,6.729,6.729,0,0,1,6.729-6.729,6.73,6.73,0,0,1,6.729,6.729A6.73,6.73,0,0,1,707.141-487.466Z" transform="translate(-690.99 510.346)" fill="#474747"/>
      <circle id="Elipse_4100" data-name="Elipse 4100" cx="14.805" cy="14.805" r="14.805" transform="translate(52.49 1.346)" fill="#3b5892"/>
      <path id="Trazado_103866" data-name="Trazado 103866" d="M1044.411-484.7c-4.6,0-8.075-6.943-8.075-16.151S1039.808-517,1044.411-517s8.075,6.943,8.075,16.151S1049.014-484.7,1044.411-484.7Zm0-29.609c-2.541,0-5.384,5.755-5.384,13.459s2.843,13.459,5.384,13.459,5.384-5.755,5.384-13.459S1046.953-514.308,1044.411-514.308Z" transform="translate(-977.117 517)" fill="#5e87ca"/>
      <path id="Trazado_103867" data-name="Trazado 103867" d="M1011.063-386.358l-.143.079a14.856,14.856,0,0,0,1.719,2.136,23.436,23.436,0,0,1,10.632-2.215,23.41,23.41,0,0,1,10.632,2.213,14.758,14.758,0,0,0,1.715-2.128l-.125-.078a25.776,25.776,0,0,0-12.222-2.7A25.761,25.761,0,0,0,1011.063-386.358Z" transform="translate(-955.977 410.584)" fill="#5e87ca"/>
      <path id="Trazado_103868" data-name="Trazado 103868" d="M1023.278-479.953a23.418,23.418,0,0,1-10.632-2.214,14.724,14.724,0,0,0-1.717,2.132l.128.082a25.774,25.774,0,0,0,12.222,2.692,25.746,25.746,0,0,0,12.3-2.748l.044-.03a14.858,14.858,0,0,0-1.715-2.129A23.436,23.436,0,0,1,1023.278-479.953Z" transform="translate(-955.983 488.028)" fill="#5e87ca"/>
      <path id="Trazado_103869" data-name="Trazado 103869" d="M996.336-427.654c0,.455.028.9.067,1.346h29.475c.039-.444.067-.891.067-1.346s-.028-.9-.067-1.346H996.4C996.364-428.556,996.336-428.109,996.336-427.654Z" transform="translate(-943.846 443.805)" fill="#5e87ca"/>
      <rect id="Rect치ngulo_5656" data-name="Rect치ngulo 5656" width="13.459" height="2.692" transform="translate(34.993 14.805)" fill="#f0ae42"/>
      <path id="Trazado_103870" data-name="Trazado 103870" d="M814.058-329.932h-6.729v-1.821a13.487,13.487,0,0,0,6.46-8.946H815.4a5.369,5.369,0,0,0,5.371-5.366,5.369,5.369,0,0,0-3.783-5.132l.887-4.441a11.14,11.14,0,0,0-8.739-13.108,11.144,11.144,0,0,0-2.187-.216h-2.989a.673.673,0,0,1-.673-.673A3.365,3.365,0,0,0,799.927-373h-4.172a12.651,12.651,0,0,0-12.645,12.658,12.663,12.663,0,0,0,.128,1.787l1.047,7.334a5.369,5.369,0,0,0-3.648,6.659,5.369,5.369,0,0,0,5.158,3.864h1.615a13.487,13.487,0,0,0,6.46,8.946v1.821h-6.729a14.822,14.822,0,0,0-14.8,14.8,1.346,1.346,0,0,0,1.346,1.346h53.836a1.346,1.346,0,0,0,1.346-1.346A14.822,14.822,0,0,0,814.058-329.932Zm4.038-16.151a2.692,2.692,0,0,1-2.692,2.692h-1.346v-5.384H815.4A2.692,2.692,0,0,1,818.1-346.082Zm-32.3,2.692a2.692,2.692,0,0,1-2.692-2.692,2.692,2.692,0,0,1,2.692-2.692h1.346v5.384Zm1.346-8.075h-.183l-1.067-7.47a10.087,10.087,0,0,1-.1-1.413,9.974,9.974,0,0,1,9.96-9.96h4.172a.673.673,0,0,1,.673.673,3.365,3.365,0,0,0,3.365,3.365h2.989a8.449,8.449,0,0,1,8.451,8.448,8.46,8.46,0,0,1-.164,1.66l-.939,4.7h-.242a4.057,4.057,0,0,0-1.615-3.23l-2.892-2.17a3.4,3.4,0,0,0-4.424.315.7.7,0,0,1-.98,0l-4.336-4.336a4.711,4.711,0,0,0-6.5,0l-3.807,3.808A8.021,8.021,0,0,0,787.141-351.466Zm2.692,8.075v-7.98a5.349,5.349,0,0,1,1.576-3.806l3.807-3.808a1.9,1.9,0,0,1,2.692,0l4.336,4.336a3.466,3.466,0,0,0,4.786,0,.7.7,0,0,1,.906-.065l2.892,2.17a1.346,1.346,0,0,1,.538,1.077v8.075A10.767,10.767,0,0,1,800.6-332.623,10.767,10.767,0,0,1,789.833-343.39ZM800.6-329.932a13.4,13.4,0,0,0,4.038-.62v1.966a4.038,4.038,0,0,1-4.038,4.038,4.038,4.038,0,0,1-4.038-4.038v-1.966A13.4,13.4,0,0,0,800.6-329.932Zm-25.5,13.459a12.13,12.13,0,0,1,12.039-10.767H794a6.729,6.729,0,0,0,7.934,5.256,6.729,6.729,0,0,0,5.256-5.256h6.864A12.131,12.131,0,0,1,826.1-316.473Z" transform="translate(-757.531 397.226)"/>
      <path id="Trazado_103871" data-name="Trazado 103871" d="M704.524-486.045v-1.973a13.351,13.351,0,0,0,2.179-.906l1.4,1.4a1.346,1.346,0,0,0,1.9,0l3.808-3.807a1.346,1.346,0,0,0,0-1.9l-1.4-1.4a13.387,13.387,0,0,0,.9-2.179h1.973a1.346,1.346,0,0,0,1.346-1.346v-5.384a1.346,1.346,0,0,0-1.346-1.346h-1.973a13.375,13.375,0,0,0-.9-2.179l1.4-1.4a1.346,1.346,0,0,0,0-1.9L710-514.174a1.346,1.346,0,0,0-1.9,0l-1.4,1.4a13.37,13.37,0,0,0-2.179-.9v-1.973A1.346,1.346,0,0,0,703.178-517h-5.384a1.346,1.346,0,0,0-1.346,1.346v1.973a13.371,13.371,0,0,0-2.179.9l-1.4-1.4a1.346,1.346,0,0,0-1.9,0l-3.807,3.807a1.346,1.346,0,0,0,0,1.9l1.4,1.4a13.37,13.37,0,0,0-.9,2.179h-1.973a1.346,1.346,0,0,0-1.346,1.346v5.384a1.346,1.346,0,0,0,1.346,1.346h1.973a13.371,13.371,0,0,0,.9,2.179l-1.4,1.4a1.346,1.346,0,0,0,0,1.9l3.807,3.807a1.346,1.346,0,0,0,1.9,0l1.4-1.4a13.372,13.372,0,0,0,2.179.9v1.973a1.346,1.346,0,0,0,1.346,1.346h5.384A1.346,1.346,0,0,0,704.524-486.045Zm-2.692-3v1.657h-2.692v-1.657a1.346,1.346,0,0,0-1.048-1.312,10.676,10.676,0,0,1-3.328-1.382,1.346,1.346,0,0,0-1.669.187l-1.174,1.174-1.9-1.9,1.174-1.174a1.346,1.346,0,0,0,.187-1.67A10.652,10.652,0,0,1,690-498.456a1.346,1.346,0,0,0-1.314-1.047h-1.655V-502.2h1.655A1.346,1.346,0,0,0,690-503.242a10.653,10.653,0,0,1,1.382-3.328,1.346,1.346,0,0,0-.187-1.67l-1.174-1.174,1.9-1.9,1.174,1.174a1.346,1.346,0,0,0,1.67.187,10.655,10.655,0,0,1,3.328-1.382,1.346,1.346,0,0,0,1.047-1.314v-1.656h2.692v1.656a1.346,1.346,0,0,0,1.047,1.314,10.654,10.654,0,0,1,3.328,1.382,1.346,1.346,0,0,0,1.67-.187l1.174-1.174,1.9,1.9-1.174,1.174a1.346,1.346,0,0,0-.187,1.67,10.653,10.653,0,0,1,1.382,3.328,1.346,1.346,0,0,0,1.314,1.047h1.655v2.692H712.29a1.346,1.346,0,0,0-1.314,1.047,10.652,10.652,0,0,1-1.382,3.328,1.346,1.346,0,0,0,.187,1.67l1.174,1.174-1.9,1.9-1.174-1.174a1.346,1.346,0,0,0-1.669-.187,10.676,10.676,0,0,1-3.328,1.382,1.346,1.346,0,0,0-1.048,1.312Z" transform="translate(-684.336 517)"/>
      <path id="Trazado_103872" data-name="Trazado 103872" d="M740.411-469a8.075,8.075,0,0,0-8.075,8.075,8.075,8.075,0,0,0,8.075,8.075,8.075,8.075,0,0,0,8.075-8.075A8.083,8.083,0,0,0,740.411-469Zm0,13.459a5.384,5.384,0,0,1-5.383-5.384,5.384,5.384,0,0,1,5.383-5.384,5.384,5.384,0,0,1,5.384,5.384A5.384,5.384,0,0,1,740.411-455.541Z" transform="translate(-724.261 477.075)"/>
      <path id="Trazado_103873" data-name="Trazado 103873" d="M1004.487-517a16.151,16.151,0,0,0-16.151,16.151,16.151,16.151,0,0,0,16.151,16.151,16.151,16.151,0,0,0,16.151-16.151A16.168,16.168,0,0,0,1004.487-517Zm4.117,7.793a30.329,30.329,0,0,1-4.117.283,30.329,30.329,0,0,1-4.117-.283c1.063-3.145,2.637-5.1,4.117-5.1S1007.54-512.353,1008.6-509.207Zm1.183-4.009a13.484,13.484,0,0,1,4.023,2.677,18.685,18.685,0,0,1-2.506.808A17.064,17.064,0,0,0,1009.787-513.217ZM999.134-502.2a27.986,27.986,0,0,1,.538-4.394,32.68,32.68,0,0,0,4.814.357,32.671,32.671,0,0,0,4.817-.357,27.986,27.986,0,0,1,.538,4.394Zm10.705,2.692a27.986,27.986,0,0,1-.538,4.394,32.7,32.7,0,0,0-9.634,0,27.972,27.972,0,0,1-.538-4.394Zm-12.17-10.222a18.692,18.692,0,0,1-2.506-.808,13.48,13.48,0,0,1,4.023-2.682A17.05,17.05,0,0,0,997.67-509.725Zm-.673,2.6a31.49,31.49,0,0,0-.553,4.929H991.1a13.357,13.357,0,0,1,2.245-6.191A20.806,20.806,0,0,0,997-507.124Zm-.553,7.62a31.494,31.494,0,0,0,.558,4.929,20.81,20.81,0,0,0-3.661,1.261,13.356,13.356,0,0,1-2.245-6.19Zm1.226,7.53a17.057,17.057,0,0,0,1.517,3.491,13.48,13.48,0,0,1-4.023-2.677,18.692,18.692,0,0,1,2.506-.808Zm2.7-.518a30.129,30.129,0,0,1,8.234,0c-1.063,3.145-2.637,5.1-4.117,5.1s-3.054-1.956-4.117-5.1Zm10.934.518a18.693,18.693,0,0,1,2.506.807,13.483,13.483,0,0,1-4.023,2.682,17.055,17.055,0,0,0,1.517-3.483Zm.673-2.6a31.5,31.5,0,0,0,.553-4.929h5.347a13.356,13.356,0,0,1-2.245,6.191,20.8,20.8,0,0,0-3.661-1.262Zm.553-7.62a31.525,31.525,0,0,0-.559-4.929,20.8,20.8,0,0,0,3.661-1.261,13.356,13.356,0,0,1,2.245,6.19Z" transform="translate(-937.192 517)"/>
      <rect id="Rect치ngulo_5657" data-name="Rect치ngulo 5657" width="13.459" height="2.692" transform="translate(34.993 14.805)"/>
    </g>
  </g>
</svg>
