<svg xmlns="http://www.w3.org/2000/svg" xmlns:xlink="http://www.w3.org/1999/xlink" width="158" height="158" viewBox="0 0 158 158">
  <defs>
    <radialGradient id="radial-gradient" cx="0.5" cy="0.5" r="0.5" gradientUnits="objectBoundingBox">
      <stop offset="0" stop-color="#fff"/>
      <stop offset="1" stop-color="#a7beff"/>
    </radialGradient>
    <filter id="Trazado_103889" x="0" y="0" width="158" height="158" filterUnits="userSpaceOnUse">
      <feOffset dy="3" input="SourceAlpha"/>
      <feGaussianBlur stdDeviation="3" result="blur"/>
      <feFlood flood-opacity="0.161"/>
      <feComposite operator="in" in2="blur"/>
      <feComposite in="SourceGraphic"/>
    </filter>
  </defs>
  <g id="Grupo_55505" data-name="Grupo 55505" transform="translate(-1033 -1539)">
    <g transform="matrix(1, 0, 0, 1, 1033, 1539)" filter="url(#Trazado_103889)">
      <path id="Trazado_103889-2" data-name="Trazado 103889" d="M70,0A70,70,0,1,1,0,70,70,70,0,0,1,70,0Z" transform="translate(9 6)" fill="url(#radial-gradient)"/>
    </g>
    <g id="Grupo_55495" data-name="Grupo 55495" transform="translate(1071 1573)">
      <path id="Trazado_103808" data-name="Trazado 103808" d="M80.763-437.968l-4.307-4.307L72.68-438.5a34.993,34.993,0,0,1,39-30.465A34.993,34.993,0,0,1,142.405-434.2h4.038l-8.075,8.075-8.075-8.075h4.038a26.918,26.918,0,0,0-26.946-26.889A26.918,26.918,0,0,0,80.763-437.968Z" transform="translate(-66.321 475.924)" fill="#f0ae42"/>
      <path id="Trazado_103809" data-name="Trazado 103809" d="M120.891-296.642a34.993,34.993,0,0,1-39,30.465,34.993,34.993,0,0,1-30.726-34.764H47.128l8.075-8.075,8.075,8.075H59.241A26.918,26.918,0,0,0,86.133-274a26.918,26.918,0,0,0,26.681-23.168l4.3,4.3Z" transform="translate(-45.067 342.665)" fill="#b52f28"/>
      <path id="Trazado_103810" data-name="Trazado 103810" d="M37.519-475.077l-2.639-.538c.183-.9.4-1.818.65-2.72l2.595.713c-.231.847-.435,1.708-.606,2.545Zm76.893-.058c-.171-.841-.378-1.7-.611-2.54l2.595-.717c.25.9.47,1.817.653,2.719Zm-75.5-4.98L36.362-481c.31-.883.65-1.762,1.011-2.61l2.476,1.059c-.339.791-.657,1.611-.945,2.437Zm74.115-.053c-.288-.818-.607-1.637-.942-2.435l2.474-1.059c.366.852.707,1.727,1.013,2.6Zm-72.067-4.758-2.4-1.218c.425-.833.879-1.657,1.354-2.45l2.312,1.373C41.778-486.472,41.352-485.7,40.957-484.924Zm70.008-.043c-.392-.766-.817-1.534-1.265-2.288l2.307-1.385c.482.808.942,1.624,1.355,2.445Zm-67.325-4.445-2.214-1.53c.525-.758,1.085-1.513,1.668-2.245l2.106,1.676C44.652-490.826,44.129-490.121,43.639-489.413Zm64.642-.035c-.5-.713-1.022-1.419-1.561-2.1l2.1-1.68c.579.725,1.141,1.48,1.669,2.241ZM46.9-493.5l-1.995-1.813c.624-.685,1.28-1.359,1.947-2l1.867,1.941Q47.778-494.472,46.9-493.5Zm58.125-.03q-.881-.968-1.826-1.874l1.857-1.942c.665.637,1.32,1.31,1.952,2Zm-54.356-3.594-1.736-2.061c.709-.6,1.448-1.176,2.2-1.725l1.594,2.172Q51.666-497.969,50.669-497.126Zm50.578-.027q-1-.843-2.059-1.615l1.591-2.174c.746.548,1.48,1.126,2.2,1.725ZM54.88-500.216l-1.443-2.272c.781-.5,1.588-.973,2.4-1.417l1.288,2.362Q55.985-500.915,54.88-500.216Zm42.145-.024q-1.105-.7-2.257-1.327l1.288-2.365c.808.443,1.615.919,2.409,1.417Zm-37.56-2.478-1.125-2.445c.845-.389,1.712-.755,2.575-1.085l.961,2.513Q60.65-503.266,59.465-502.718Zm32.965-.023c-.791-.365-1.6-.705-2.412-1.013l.958-2.515c.865.33,1.733.694,2.579,1.085Zm-28.087-1.84-.793-2.572c.892-.269,1.8-.522,2.692-.734l.618,2.62c-.834.191-1.682.416-2.517.685Zm23.2-.024q-1.25-.38-2.528-.682l.615-2.62c.9.21,1.8.455,2.692.729Zm-18.117-1.187-.444-2.654c.908-.152,1.84-.276,2.767-.369l.269,2.678Q70.712-506.007,69.429-505.793Zm13.024-.011c-.853-.135-1.727-.256-2.591-.341l.26-2.678c.925.09,1.859.213,2.771.363Zm-7.828-.5L74.535-509c.929-.032,1.864-.032,2.794,0l-.085,2.692c-.869-.023-1.748-.023-2.619,0Z" transform="translate(-34.88 509.025)" fill="#ccc"/>
      <path id="Trazado_103811" data-name="Trazado 103811" d="M76.139-180.819c-.493-.007-.977,0-1.467-.023l.09-2.692c.458.015.919.026,1.373.02.419,0,.83-.008,1.242-.022l.092,2.692c-.441.016-.886.024-1.33.024Zm-4.252-.2c-.917-.09-1.848-.213-2.771-.365l.44-2.655c.853.135,1.719.256,2.591.34Zm8.369-.007-.269-2.68c.871-.086,1.736-.2,2.591-.343l.441,2.654c-.917.155-1.849.277-2.763.369Zm-13.881-.9c-.9-.213-1.81-.459-2.692-.729l.786-2.573q1.249.38,2.528.682Zm19.389-.016-.62-2.618c.852-.2,1.693-.431,2.525-.688l.791,2.573c-.883.271-1.789.515-2.7.732Zm-24.731-1.615c-.871-.332-1.738-.7-2.579-1.085l1.125-2.444c.789.363,1.595.7,2.412,1.013Zm30.063-.023-.958-2.515c.808-.306,1.615-.647,2.405-1.015l1.131,2.445c-.849.385-1.717.756-2.577,1.078Zm-35.142-2.324c-.818-.445-1.63-.923-2.409-1.417l1.44-2.273q1.105.7,2.257,1.327Zm40.215-.024L94.88-188.3q1.147-.626,2.252-1.327l1.443,2.272c-.789.5-1.6.976-2.406,1.42ZM51.234-188.9q-1.127-.826-2.2-1.723l1.728-2.063q1,.84,2.061,1.615Zm49.646-.028-1.594-2.17q1.055-.772,2.058-1.615l1.732,2.061c-.708.587-1.447,1.167-2.2,1.717Zm-53.927-3.569c-.673-.641-1.326-1.314-1.952-2l1.988-1.817q.881.969,1.826,1.873Zm58.2-.035-1.869-1.938q.942-.908,1.826-1.876l1.989,1.813C106.482-193.845,105.828-193.172,105.157-192.529Zm-61.97-4.089c-.585-.732-1.147-1.487-1.67-2.244l2.219-1.533c.489.707,1.013,1.412,1.56,2.1Zm65.729-.036-2.106-1.677c.545-.684,1.069-1.389,1.56-2.1l2.214,1.532c-.526.759-1.087,1.514-1.668,2.244Zm-68.909-4.552c-.482-.808-.942-1.625-1.355-2.447l2.393-1.222c.392.766.817,1.536,1.265,2.288Zm72.094-.042-2.314-1.375c.444-.74.869-1.51,1.265-2.288l2.4,1.211c-.427.836-.88,1.659-1.355,2.452ZM37.463-206.18c-.365-.851-.707-1.724-1.013-2.6l2.54-.894q.432,1.236.942,2.433Zm77.173-.05-2.476-1.057c.341-.8.658-1.615.942-2.44l2.542.89C115.338-207.959,115-207.082,114.637-206.23ZM35.614-211.45c-.25-.9-.47-1.817-.654-2.719l2.637-.538c.172.843.378,1.7.612,2.541Zm80.865-.055-2.595-.712c.231-.847.436-1.7.606-2.542l2.639.538c-.176.891-.4,1.806-.65,2.716Z" transform="translate(-34.947 264.266)" fill="#ccc"/>
      <path id="Trazado_103812" data-name="Trazado 103812" d="M204.813-350.136v-8.075h-3.221a16.039,16.039,0,0,0-1.72-4.153l2.277-2.277-5.711-5.711-2.277,2.277a16.042,16.042,0,0,0-4.153-1.72v-3.221h-8.075v3.221a16.037,16.037,0,0,0-4.153,1.72l-2.277-2.277-5.711,5.711,2.277,2.277a16.039,16.039,0,0,0-1.72,4.153h-3.221v8.075h3.221a16.037,16.037,0,0,0,1.72,4.153l-2.277,2.277,5.711,5.711,2.277-2.277a16.037,16.037,0,0,0,4.153,1.72v3.221h8.075v-3.221a16.042,16.042,0,0,0,4.153-1.72l2.277,2.277,5.711-5.711-2.277-2.277a16.037,16.037,0,0,0,1.72-4.153Z" transform="translate(-144.879 395.898)" fill="#474747"/>
      <circle id="Elipse_4099" data-name="Elipse 4099" cx="9.421" cy="9.421" r="9.421" transform="translate(31.67 32.303)" fill="#f2f2f2"/>
      <path id="Trazado_103813" data-name="Trazado 103813" d="M208.638-499.684l-.618-2.62c-.9.211-1.8.459-2.692.733l.787,2.579C206.95-499.261,207.8-499.486,208.638-499.684Z" transform="translate(-176.653 503.435)"/>
      <path id="Trazado_103814" data-name="Trazado 103814" d="M240.628-505.1l-.269-2.678c-.927.093-1.859.217-2.767.369l.444,2.654Q239.32-504.967,240.628-505.1Z" transform="translate(-203.489 507.987)"/>
      <path id="Trazado_103815" data-name="Trazado 103815" d="M273.333-506.314l.085-2.692c-.93-.03-1.865-.03-2.794,0l.09,2.692C271.58-506.334,272.458-506.334,273.333-506.314Z" transform="translate(-230.963 509.028)"/>
      <path id="Trazado_103816" data-name="Trazado 103816" d="M305.287-507.453c-.913-.151-1.847-.269-2.771-.363l-.26,2.678c.864.085,1.738.2,2.591.341Z" transform="translate(-257.274 508.02)"/>
      <path id="Trazado_103817" data-name="Trazado 103817" d="M177.848-490.015l-.961-2.513c-.863.33-1.729.7-2.575,1.085L175.44-489c.789-.365,1.594-.7,2.408-1.017Z" transform="translate(-150.855 495.304)"/>
      <path id="Trazado_103818" data-name="Trazado 103818" d="M38.125-325.9l-2.595-.719c-.248.9-.467,1.817-.65,2.72l2.639.538C37.69-324.193,37.893-325.055,38.125-325.9Z" transform="translate(-34.88 357.304)"/>
      <path id="Trazado_103819" data-name="Trazado 103819" d="M60.4-386.216l-2.311-1.376c-.475.793-.929,1.615-1.354,2.45l2.4,1.221C59.531-384.7,59.957-385.469,60.4-386.216Z" transform="translate(-53.059 408.022)"/>
      <path id="Trazado_103820" data-name="Trazado 103820" d="M148.876-476.251l-1.288-2.365c-.816.444-1.623.922-2.4,1.417l1.443,2.272q1.1-.7,2.249-1.324Z" transform="translate(-126.627 483.732)"/>
      <path id="Trazado_103821" data-name="Trazado 103821" d="M98.286-437.479l-1.867-1.937c-.673.642-1.323,1.316-1.947,2l1.995,1.809Q97.344-436.572,98.286-437.479Z" transform="translate(-84.446 451.127)"/>
      <path id="Trazado_103822" data-name="Trazado 103822" d="M77.558-413.22,75.452-414.9c-.583.732-1.143,1.48-1.668,2.245L76-411.121C76.488-411.829,77.011-412.534,77.558-413.22Z" transform="translate(-67.239 430.732)"/>
      <path id="Trazado_103823" data-name="Trazado 103823" d="M47.175-356.917,44.7-357.976c-.361.848-.7,1.727-1.011,2.61l2.542.887c.288-.826.606-1.646.945-2.437Z" transform="translate(-42.206 383.388)"/>
      <path id="Trazado_103824" data-name="Trazado 103824" d="M494.659-354.778l2.54-.892c-.307-.875-.647-1.75-1.013-2.6l-2.474,1.059C494.052-356.415,494.371-355.6,494.659-354.778Z" transform="translate(-416.52 383.635)"/>
      <path id="Trazado_103825" data-name="Trazado 103825" d="M463.457-411.355l2.21-1.54c-.528-.762-1.09-1.515-1.669-2.241l-2.1,1.68c.54.682,1.066,1.388,1.561,2.1Z" transform="translate(-390.057 430.932)"/>
      <path id="Trazado_103826" data-name="Trazado 103826" d="M122.2-458.636l-1.594-2.172c-.748.549-1.487,1.129-2.2,1.725l1.736,2.061Q121.14-457.862,122.2-458.636Z" transform="translate(-104.356 468.92)"/>
      <path id="Trazado_103827" data-name="Trazado 103827" d="M480.873-384.171l2.4-1.223c-.417-.821-.874-1.642-1.355-2.445l-2.307,1.385c.447.75.872,1.513,1.265,2.284Z" transform="translate(-404.789 408.228)"/>
      <path id="Trazado_103828" data-name="Trazado 103828" d="M336.243-501.663c-.894-.269-1.8-.52-2.692-.729l-.615,2.62q1.277.3,2.526.682Z" transform="translate(-282.792 503.508)"/>
      <path id="Trazado_103829" data-name="Trazado 103829" d="M504.6-323.687l2.637-.538c-.183-.9-.4-1.817-.653-2.719l-2.595.717c.233.843.44,1.7.611,2.54Z" transform="translate(-425.071 357.577)"/>
      <path id="Trazado_103830" data-name="Trazado 103830" d="M366.161-491.571c-.845-.39-1.713-.755-2.579-1.085l-.958,2.515c.808.308,1.615.649,2.412,1.013Z" transform="translate(-307.486 495.41)"/>
      <path id="Trazado_103831" data-name="Trazado 103831" d="M394.553-477.343c-.787-.5-1.6-.974-2.409-1.417l-1.288,2.365q1.151.627,2.257,1.327Z" transform="translate(-330.968 483.852)"/>
      <path id="Trazado_103832" data-name="Trazado 103832" d="M444.75-437.625c-.631-.689-1.287-1.362-1.952-2l-1.863,1.942q.942.907,1.826,1.873Z" transform="translate(-372.623 451.3)"/>
      <path id="Trazado_103833" data-name="Trazado 103833" d="M420.893-459.251c-.712-.6-1.452-1.178-2.2-1.725L417.1-458.8q1.058.771,2.059,1.615Z" transform="translate(-352.8 469.06)"/>
      <path id="Trazado_103834" data-name="Trazado 103834" d="M118.632-81.5q1.077.894,2.2,1.723l1.591-2.171q-1.058-.775-2.061-1.615Z" transform="translate(-104.542 155.146)"/>
      <path id="Trazado_103835" data-name="Trazado 103835" d="M391.128-64.033l1.291,2.363c.808-.443,1.615-.919,2.4-1.419L393.38-65.36Q392.275-64.659,391.128-64.033Z" transform="translate(-331.194 140.001)"/>
      <path id="Trazado_103836" data-name="Trazado 103836" d="M362.936-49.473l.958,2.515c.86-.328,1.728-.693,2.577-1.085l-1.131-2.445c-.793.367-1.6.709-2.405,1.015Z" transform="translate(-307.745 127.631)"/>
      <path id="Trazado_103837" data-name="Trazado 103837" d="M302.624-31.874l.269,2.68c.914-.092,1.847-.214,2.767-.369l-.445-2.653c-.855.135-1.72.256-2.591.342Z" transform="translate(-257.58 112.433)"/>
      <path id="Trazado_103838" data-name="Trazado 103838" d="M417.32-82.12l1.594,2.17c.75-.55,1.489-1.131,2.2-1.725l-1.736-2.061Q418.377-82.893,417.32-82.12Z" transform="translate(-352.98 155.285)"/>
      <path id="Trazado_103839" data-name="Trazado 103839" d="M333.248-38.688l.62,2.618c.906-.214,1.813-.462,2.692-.732l-.791-2.573c-.828.262-1.666.485-2.521.688Z" transform="translate(-283.052 118.388)"/>
      <path id="Trazado_103840" data-name="Trazado 103840" d="M504.088-212.27l2.595.712c.249-.9.468-1.82.65-2.72l-2.639-.538c-.17.841-.374,1.7-.606,2.546Z" transform="translate(-425.15 264.313)"/>
      <path id="Trazado_103841" data-name="Trazado 103841" d="M272.471-29.122c-.454,0-.915,0-1.373-.02l-.09,2.692c.49.017.974.016,1.467.023.444,0,.888-.008,1.33-.024l-.092-2.692c-.412.013-.824.022-1.242.022Z" transform="translate(-231.283 109.878)"/>
      <path id="Trazado_103842" data-name="Trazado 103842" d="M493.84-182.4l2.476,1.057c.363-.852.7-1.729,1.011-2.607l-2.542-.89C494.5-184.016,494.18-183.2,493.84-182.4Z" transform="translate(-416.626 239.38)"/>
      <path id="Trazado_103843" data-name="Trazado 103843" d="M462.04-127.478l2.106,1.677c.58-.729,1.141-1.48,1.668-2.244l-2.214-1.532c-.491.709-1.015,1.415-1.56,2.1Z" transform="translate(-390.176 193.413)"/>
      <path id="Trazado_103844" data-name="Trazado 103844" d="M441.1-103.388l1.869,1.938c.673-.647,1.324-1.32,1.946-2l-1.995-1.813Q442.049-104.3,441.1-103.388Z" transform="translate(-372.763 173.192)"/>
      <path id="Trazado_103845" data-name="Trazado 103845" d="M479.736-153.928l2.311,1.382c.475-.793.929-1.615,1.354-2.45l-2.4-1.221C480.605-155.445,480.18-154.675,479.736-153.928Z" transform="translate(-404.895 215.572)"/>
      <path id="Trazado_103846" data-name="Trazado 103846" d="M76.155-129.368l-2.219,1.54c.524.756,1.085,1.511,1.67,2.244l2.1-1.68C77.162-127.956,76.637-128.661,76.155-129.368Z" transform="translate(-67.365 193.24)"/>
      <path id="Trazado_103847" data-name="Trazado 103847" d="M94.648-103.271c.626.685,1.283,1.358,1.952,2l1.863-1.942q-.942-.9-1.826-1.873Z" transform="translate(-84.593 173.045)"/>
      <path id="Trazado_103848" data-name="Trazado 103848" d="M37.6-214.456l-2.637.538c.184.9.4,1.816.654,2.719l2.595-.717C37.975-212.759,37.769-213.613,37.6-214.456Z" transform="translate(-34.947 264.014)"/>
      <path id="Trazado_103849" data-name="Trazado 103849" d="M59.277-156l-2.4,1.222c.417.822.873,1.645,1.355,2.447l2.307-1.386c-.447-.747-.872-1.511-1.265-2.283Z" transform="translate(-53.179 215.392)"/>
      <path id="Trazado_103850" data-name="Trazado 103850" d="M46.356-184.52l-2.54.894c.307.875.649,1.75,1.013,2.6l2.474-1.059q-.507-1.2-.948-2.433Z" transform="translate(-42.313 239.114)"/>
      <path id="Trazado_103851" data-name="Trazado 103851" d="M174.608-47.9c.841.388,1.708.752,2.579,1.085l.958-2.515c-.817-.312-1.623-.65-2.412-1.013Z" transform="translate(-151.101 127.511)"/>
      <path id="Trazado_103852" data-name="Trazado 103852" d="M205.664-36.691c.886.269,1.791.517,2.692.729l.618-2.62q-1.273-.3-2.525-.682Z" transform="translate(-176.932 118.295)"/>
      <path id="Trazado_103853" data-name="Trazado 103853" d="M145.424-62.943c.779.494,1.591.972,2.409,1.417l1.288-2.363q-1.151-.627-2.257-1.327Z" transform="translate(-126.827 139.881)"/>
      <path id="Trazado_103854" data-name="Trazado 103854" d="M237.984-29.513c.923.152,1.855.269,2.771.365l.26-2.68c-.872-.085-1.738-.2-2.591-.341Z" transform="translate(-203.815 112.393)"/>
      <path id="Trazado_103855" data-name="Trazado 103855" d="M118.537-441.868h-2.717A36.339,36.339,0,0,0,78.129-476.8a36.339,36.339,0,0,0-34.62,31.344l-3.985,3.985a1.346,1.346,0,0,0,0,1.9,1.345,1.345,0,0,0,.951.394h2.717a36.339,36.339,0,0,0,37.691,34.935,36.339,36.339,0,0,0,34.62-31.344l3.985-3.985a1.346,1.346,0,0,0,0-1.9,1.346,1.346,0,0,0-.951-.394Zm-39.031-32.3a33.685,33.685,0,0,1,33.647,33.647,1.346,1.346,0,0,0,1.346,1.346h.789l-4.826,4.826-4.826-4.826h.789a1.346,1.346,0,0,0,1.346-1.346,28.264,28.264,0,0,0-28.242-28.285A28.263,28.263,0,0,0,52-447.049l-2.5-2.5a1.346,1.346,0,0,0-1.9,0l-.658.658a33.656,33.656,0,0,1,32.565-25.278Zm-22.88,34.993a1.346,1.346,0,0,0,1.346-1.346,1.346,1.346,0,0,0-.394-.951L54.3-444.746a25.561,25.561,0,0,1,29.421-21,25.561,25.561,0,0,1,21.317,23.882h-2.657a1.346,1.346,0,0,0-1.346,1.346,1.346,1.346,0,0,0,.394.951l3.273,3.273a25.561,25.561,0,0,1-29.421,21,25.561,25.561,0,0,1-21.317-23.882Zm22.88,32.3a33.685,33.685,0,0,1-33.647-33.647,1.346,1.346,0,0,0-1.346-1.346h-.789l4.826-4.826,4.826,4.826h-.789a1.346,1.346,0,0,0-1.346,1.346,28.264,28.264,0,0,0,28.242,28.285,28.263,28.263,0,0,0,27.526-21.757l2.5,2.5a1.346,1.346,0,0,0,1.9,0l.659-.658A33.658,33.658,0,0,1,79.506-406.875Z" transform="translate(-38.415 482.246)"/>
      <path id="Trazado_103856" data-name="Trazado 103856" d="M163.748-352.873l-1.563,1.563a1.346,1.346,0,0,0,0,1.9L167.9-343.7a1.346,1.346,0,0,0,1.9,0l1.563-1.563a17.367,17.367,0,0,0,2.571,1.063v2.211a1.346,1.346,0,0,0,1.346,1.346h8.075a1.346,1.346,0,0,0,1.346-1.346V-344.2a17.367,17.367,0,0,0,2.571-1.063l1.563,1.563a1.346,1.346,0,0,0,1.9,0l5.711-5.711a1.346,1.346,0,0,0,0-1.9l-1.563-1.563a17.368,17.368,0,0,0,1.063-2.571h2.211a1.346,1.346,0,0,0,1.346-1.346v-8.075a1.346,1.346,0,0,0-1.346-1.346h-2.211a17.1,17.1,0,0,0-1.065-2.571l1.564-1.563a1.346,1.346,0,0,0,0-1.9l-5.711-5.711a1.346,1.346,0,0,0-1.9,0l-1.563,1.563a17.234,17.234,0,0,0-2.571-1.063v-2.211a1.346,1.346,0,0,0-1.346-1.346h-8.075a1.346,1.346,0,0,0-1.346,1.346v2.211a17.235,17.235,0,0,0-2.571,1.063l-1.563-1.563a1.346,1.346,0,0,0-1.9,0l-5.711,5.711a1.346,1.346,0,0,0,0,1.9l1.564,1.563a17.1,17.1,0,0,0-1.065,2.571h-2.211a1.346,1.346,0,0,0-1.346,1.346v8.075a1.346,1.346,0,0,0,1.346,1.346h2.211a17.37,17.37,0,0,0,1.063,2.571Zm-1.929-10.646H163.7a1.346,1.346,0,0,0,1.3-1.009,14.716,14.716,0,0,1,1.575-3.806,1.346,1.346,0,0,0-.207-1.635l-1.324-1.326,3.806-3.808,1.326,1.326a1.346,1.346,0,0,0,1.637.207,14.739,14.739,0,0,1,3.8-1.576,1.346,1.346,0,0,0,1.009-1.3v-1.875h5.384v1.875a1.346,1.346,0,0,0,1.009,1.3,14.739,14.739,0,0,1,3.8,1.576,1.346,1.346,0,0,0,1.637-.207l1.326-1.326,3.806,3.808-1.324,1.326a1.346,1.346,0,0,0-.207,1.635,14.717,14.717,0,0,1,1.575,3.806,1.346,1.346,0,0,0,1.3,1.009h1.876v5.384h-1.876a1.346,1.346,0,0,0-1.3,1.009,14.694,14.694,0,0,1-1.575,3.8,1.346,1.346,0,0,0,.207,1.637l1.324,1.326-3.806,3.806-1.326-1.324a1.346,1.346,0,0,0-1.637-.207,14.692,14.692,0,0,1-3.8,1.575,1.346,1.346,0,0,0-1.009,1.3v1.876h-5.384v-1.876a1.346,1.346,0,0,0-1.009-1.3,14.692,14.692,0,0,1-3.8-1.575,1.346,1.346,0,0,0-1.637.207l-1.326,1.324-3.806-3.806,1.324-1.326a1.346,1.346,0,0,0,.207-1.637,14.692,14.692,0,0,1-1.575-3.8,1.346,1.346,0,0,0-1.3-1.009H161.82Z" transform="translate(-138.225 402.552)"/>
      <path id="Trazado_103857" data-name="Trazado 103857" d="M225.9-303.482a10.767,10.767,0,0,0,10.767-10.767A10.767,10.767,0,0,0,225.9-325.016a10.767,10.767,0,0,0-10.767,10.767A10.779,10.779,0,0,0,225.9-303.482Zm0-18.842a8.075,8.075,0,0,1,8.075,8.075,8.075,8.075,0,0,1-8.075,8.075,8.075,8.075,0,0,1-8.075-8.075A8.083,8.083,0,0,1,225.9-322.324Z" transform="translate(-184.804 355.973)"/>
    </g>
  </g>
</svg>
