<svg xmlns="http://www.w3.org/2000/svg" xmlns:xlink="http://www.w3.org/1999/xlink" width="158" height="158" viewBox="0 0 158 158">
  <defs>
    <radialGradient id="radial-gradient" cx="0.5" cy="0.5" r="0.5" gradientUnits="objectBoundingBox">
      <stop offset="0" stop-color="#fff"/>
      <stop offset="1" stop-color="#a7beff"/>
    </radialGradient>
    <filter id="Trazado_103891" x="0" y="0" width="158" height="158" filterUnits="userSpaceOnUse">
      <feOffset dy="3" input="SourceAlpha"/>
      <feGaussianBlur stdDeviation="3" result="blur"/>
      <feFlood flood-opacity="0.161"/>
      <feComposite operator="in" in2="blur"/>
      <feComposite in="SourceGraphic"/>
    </filter>
  </defs>
  <g id="Grupo_55507" data-name="Grupo 55507" transform="translate(-1033 -1888)">
    <g transform="matrix(1, 0, 0, 1, 1033, 1888)" filter="url(#Trazado_103891)">
      <path id="Trazado_103891-2" data-name="Trazado 103891" d="M70,0A70,70,0,1,1,0,70,70,70,0,0,1,70,0Z" transform="translate(9 6)" fill="url(#radial-gradient)"/>
    </g>
    <g id="Grupo_55498" data-name="Grupo 55498" transform="translate(1070 1922)">
      <g id="Grupo_55497" data-name="Grupo 55497" transform="translate(16.578 21.442)">
        <path id="Trazado_103874" data-name="Trazado 103874" d="M1668.217-396.017l10-10,1.9,1.9-10,10Z" transform="translate(-1630.51 406.021)" fill="#e2e7f6"/>
        <path id="Trazado_103875" data-name="Trazado 103875" d="M1660.992-224.451l1.9-1.9,10.239,10.239-1.9,1.9Z" transform="translate(-1624.501 256.58)" fill="#e2e7f6"/>
        <path id="Trazado_103876" data-name="Trazado 103876" d="M1444.086-401.394l1.9-1.9,10.07,10.07-1.9,1.9Z" transform="translate(-1444.086 403.755)" fill="#e2e7f6"/>
        <path id="Trazado_103877" data-name="Trazado 103877" d="M1449.812-213.208l9.1-9.1,1.9,1.9-9.1,9.1Z" transform="translate(-1448.849 253.218)" fill="#e2e7f6"/>
      </g>
      <circle id="Elipse_4101" data-name="Elipse 4101" cx="12.113" cy="12.113" r="12.113" transform="translate(1.458 1.391)" fill="#5e87ca"/>
      <path id="Trazado_103878" data-name="Trazado 103878" d="M1375.889-514.348a12.1,12.1,0,0,0-5.353-10.052,12.113,12.113,0,0,0-15.459,7.381,12.113,12.113,0,0,0,4.63,14.07,12.087,12.087,0,0,0,15.467-7.279A12.083,12.083,0,0,0,1375.889-514.348Z" transform="translate(-1352.896 526.506)" fill="#78a0d4"/>
      <path id="Trazado_103879" data-name="Trazado 103879" d="M1399.716-436.507a12.121,12.121,0,0,1-13.5.028v-2a6.729,6.729,0,0,1,6.729-6.729,6.729,6.729,0,0,1,6.729,6.729v2Z" transform="translate(-1379.372 460.055)" fill="#3b5892"/>
      <path id="Trazado_103880" data-name="Trazado 103880" d="M1461.181-364.846H1488.1a10.767,10.767,0,0,0,10.744-10.79,10.767,10.767,0,0,0-7.285-10.165,10.748,10.748,0,0,0-13.509-6.781,10.767,10.767,0,0,0-15.007-2.578,10.767,10.767,0,0,0-4.553,8.78c0,.117.014.231.018.349a10.767,10.767,0,0,0-7.7,13.136A10.767,10.767,0,0,0,1461.181-364.846Z" transform="translate(-1432.804 420.072)" fill="#c0dafc"/>
      <circle id="Elipse_4102" data-name="Elipse 4102" cx="4.038" cy="4.038" r="4.038" transform="translate(9.534 6.774)" fill="#fbe1ca"/>
      <circle id="Elipse_4103" data-name="Elipse 4103" cx="12.113" cy="12.113" r="12.113" transform="translate(57.986 1.391)" fill="#5e87ca"/>
      <path id="Trazado_103881" data-name="Trazado 103881" d="M1711.889-514.348a12.1,12.1,0,0,0-5.353-10.052,12.113,12.113,0,0,0-15.459,7.381,12.113,12.113,0,0,0,4.63,14.07,12.087,12.087,0,0,0,15.467-7.279,12.077,12.077,0,0,0,.714-4.12Z" transform="translate(-1632.369 526.506)" fill="#78a0d4"/>
      <path id="Trazado_103882" data-name="Trazado 103882" d="M1735.716-436.507a12.121,12.121,0,0,1-13.5.028v-2a6.729,6.729,0,0,1,6.729-6.729,6.729,6.729,0,0,1,6.729,6.729v2Z" transform="translate(-1658.845 460.055)" fill="#3b5892"/>
      <circle id="Elipse_4104" data-name="Elipse 4104" cx="4.038" cy="4.038" r="4.038" transform="translate(66.061 6.774)" fill="#fbe1ca"/>
      <circle id="Elipse_4105" data-name="Elipse 4105" cx="12.113" cy="12.113" r="12.113" transform="translate(57.986 57.918)" fill="#5e87ca"/>
      <path id="Trazado_103883" data-name="Trazado 103883" d="M1711.889-178.349a12.1,12.1,0,0,0-5.353-10.052,12.113,12.113,0,0,0-15.459,7.381,12.114,12.114,0,0,0,4.63,14.07,12.087,12.087,0,0,0,15.467-7.279,12.078,12.078,0,0,0,.714-4.12Z" transform="translate(-1632.369 247.034)" fill="#78a0d4"/>
      <path id="Trazado_103884" data-name="Trazado 103884" d="M1735.716-100.507a12.121,12.121,0,0,1-13.5.028v-2a6.729,6.729,0,0,1,6.729-6.729,6.729,6.729,0,0,1,6.729,6.729v2Z" transform="translate(-1658.845 180.582)" fill="#3b5892"/>
      <circle id="Elipse_4106" data-name="Elipse 4106" cx="4.038" cy="4.038" r="4.038" transform="translate(66.061 63.301)" fill="#fbe1ca"/>
      <circle id="Elipse_4107" data-name="Elipse 4107" cx="12.113" cy="12.113" r="12.113" transform="translate(1.458 57.918)" fill="#5e87ca"/>
      <path id="Trazado_103885" data-name="Trazado 103885" d="M1375.889-178.349a12.1,12.1,0,0,0-5.353-10.052,12.113,12.113,0,0,0-15.459,7.381,12.113,12.113,0,0,0,4.63,14.07,12.087,12.087,0,0,0,15.467-7.279A12.084,12.084,0,0,0,1375.889-178.349Z" transform="translate(-1352.896 247.034)" fill="#78a0d4"/>
      <path id="Trazado_103886" data-name="Trazado 103886" d="M1399.716-100.507a12.121,12.121,0,0,1-13.5.028v-2a6.729,6.729,0,0,1,6.729-6.729,6.729,6.729,0,0,1,6.729,6.729v2Z" transform="translate(-1379.372 180.582)" fill="#3b5892"/>
      <circle id="Elipse_4108" data-name="Elipse 4108" cx="4.038" cy="4.038" r="4.038" transform="translate(9.534 63.301)" fill="#fbe1ca"/>
      <path id="Trazado_103887" data-name="Trazado 103887" d="M1415.644-476.9a13.371,13.371,0,0,0-7.742,2.468l-3.135-3.135a12.1,12.1,0,0,0,7.531-15.367,12.1,12.1,0,0,0-6.953-7.317,12.037,12.037,0,0,0-1.23-2.25l5.471-5.467a13.475,13.475,0,0,0,18.1-5.95,13.475,13.475,0,0,0-5.95-18.1,13.475,13.475,0,0,0-18.1,5.95,13.475,13.475,0,0,0,3.631,16.617l-4.882,4.882a12.056,12.056,0,0,0-11.081-2.95,12.094,12.094,0,0,0-17.03-1.583,12.1,12.1,0,0,0-3.344,4.43l-4.206-4.2a13.415,13.415,0,0,0,3.409-18.662,13.414,13.414,0,0,0-18.662-3.409,13.414,13.414,0,0,0-3.409,18.662,13.414,13.414,0,0,0,16.2,4.755l5.787,5.787a11.83,11.83,0,0,0-.148,1.32A12.1,12.1,0,0,0,1362.49-485a12.1,12.1,0,0,0,6.534,7.065l-2.982,2.983a13.514,13.514,0,0,0-18.552,4.592,13.514,13.514,0,0,0,4.592,18.552,13.514,13.514,0,0,0,18.552-4.592,13.514,13.514,0,0,0-2.417-16.921l3.744-3.744a12.07,12.07,0,0,0,1.961.17h26.918c.253,0,.5-.023.751-.038l4.276,4.276a13.44,13.44,0,0,0,.594,19,13.44,13.44,0,0,0,19-.594,13.44,13.44,0,0,0-.594-19,13.44,13.44,0,0,0-9.22-3.644Zm-5.384-33.758v-1.236a5.384,5.384,0,0,1,5.384-5.384,5.384,5.384,0,0,1,5.383,5.384v1.236A10.68,10.68,0,0,1,1410.261-510.657Zm2.692-12a2.692,2.692,0,0,1,2.692-2.692,2.692,2.692,0,0,1,2.692,2.692,2.692,2.692,0,0,1-2.692,2.692A2.692,2.692,0,0,1,1412.953-522.66Zm-8.075,2.692a10.767,10.767,0,0,1,10.742-10.792,10.767,10.767,0,0,1,10.792,10.742,10.767,10.767,0,0,1-2.747,7.209,8.087,8.087,0,0,0-4.126-6.153,5.383,5.383,0,0,0-.176-7.611,5.384,5.384,0,0,0-7.611.176,5.384,5.384,0,0,0,0,7.436,8.088,8.088,0,0,0-4.126,6.153A10.709,10.709,0,0,1,1404.877-519.968Zm-56.527,0a10.767,10.767,0,0,1,10.742-10.792,10.767,10.767,0,0,1,10.792,10.742,10.767,10.767,0,0,1-2.747,7.209,8.088,8.088,0,0,0-4.126-6.153,5.384,5.384,0,0,0-.176-7.611,5.384,5.384,0,0,0-7.612.176,5.384,5.384,0,0,0,0,7.436,8.088,8.088,0,0,0-4.126,6.153A10.708,10.708,0,0,1,1348.35-519.968Zm8.075-2.692a2.692,2.692,0,0,1,2.692-2.692,2.692,2.692,0,0,1,2.692,2.692,2.692,2.692,0,0,1-2.692,2.692A2.692,2.692,0,0,1,1356.425-522.66Zm-2.692,12v-1.236a5.384,5.384,0,0,1,5.383-5.384,5.384,5.384,0,0,1,5.384,5.384v1.236A10.68,10.68,0,0,1,1353.734-510.657Zm0,56.527v-1.236a5.383,5.383,0,0,1,5.383-5.383,5.384,5.384,0,0,1,5.384,5.383v1.236A10.679,10.679,0,0,1,1353.734-454.13Zm2.692-12a2.692,2.692,0,0,1,2.692-2.692,2.692,2.692,0,0,1,2.692,2.692,2.692,2.692,0,0,1-2.692,2.692A2.692,2.692,0,0,1,1356.425-466.132Zm13.459,2.692a10.707,10.707,0,0,1-2.747,7.159,8.088,8.088,0,0,0-4.126-6.153,5.384,5.384,0,0,0-.176-7.612,5.384,5.384,0,0,0-7.612.176,5.384,5.384,0,0,0,0,7.436,8.088,8.088,0,0,0-4.126,6.153,10.76,10.76,0,0,1,.861-15.193,10.76,10.76,0,0,1,15.193.861A10.76,10.76,0,0,1,1369.884-463.44Zm4.038-16.151a9.422,9.422,0,0,1-9.377-9.465,9.421,9.421,0,0,1,7.037-9.07,1.346,1.346,0,0,0,1.011-1.346l-.016-.307a9.421,9.421,0,0,1,9.432-9.41,9.421,9.421,0,0,1,7.683,3.985,1.346,1.346,0,0,0,1.514.5,9.4,9.4,0,0,1,11.818,5.933,1.347,1.347,0,0,0,.842.843,9.421,9.421,0,0,1,5.864,11.964,9.422,9.422,0,0,1-8.891,6.371Zm36.339,25.461v-1.236a5.384,5.384,0,0,1,5.384-5.383,5.383,5.383,0,0,1,5.383,5.383v1.236A10.679,10.679,0,0,1,1410.261-454.13Zm2.692-12a2.692,2.692,0,0,1,2.692-2.692,2.692,2.692,0,0,1,2.692,2.692,2.692,2.692,0,0,1-2.692,2.692A2.692,2.692,0,0,1,1412.953-466.132Zm10.712,9.851a8.087,8.087,0,0,0-4.126-6.153,5.384,5.384,0,0,0-.176-7.612,5.384,5.384,0,0,0-7.611.176,5.384,5.384,0,0,0,0,7.436,8.088,8.088,0,0,0-4.126,6.153,10.767,10.767,0,0,1,.836-15.2,10.767,10.767,0,0,1,15.2.836A10.767,10.767,0,0,1,1423.664-456.282Z" transform="translate(-1345.546 533.471)"/>
    </g>
  </g>
</svg>
