<svg xmlns="http://www.w3.org/2000/svg" width="138.277" height="138.278" viewBox="0 0 138.277 138.278">
  <g id="Grupo_54973" data-name="Grupo 54973" transform="translate(172.854 279.928)">
    <path id="Trazado_103027" data-name="Trazado 103027" d="M-34.587-211.946a69.018,69.018,0,0,1-26.9,55.9,129.7,129.7,0,0,1-84.368-.234l-.688-.239a69.137,69.137,0,0,1-11.439-97.1,69.137,69.137,0,0,1,97.1-11.438A69.136,69.136,0,0,1-34.587-211.946Z" fill="#4276d5"/>
    <path id="Trazado_103028" data-name="Trazado 103028" d="M-34.578-210.79a69.02,69.02,0,0,1-26.911,54.744,129.7,129.7,0,0,1-84.368-.234l-.688-.239a69.17,69.17,0,0,1-17.21-88.569A69.158,69.158,0,0,0-69.4-219.366a69.153,69.153,0,0,0,25.722-25.722A68.821,68.821,0,0,1-34.578-210.79Z" fill="#3366c2"/>
    <path id="Trazado_103029" data-name="Trazado 103029" d="M-61.49-245.243v89.2a68.832,68.832,0,0,1-42.223,14.39h-.305a68.828,68.828,0,0,1-42.528-14.867v-88.726a3.42,3.42,0,0,1,3.421-3.42h78.214a3.42,3.42,0,0,1,3.42,3.42h0Z" fill="#fff"/>
    <path id="Trazado_103030" data-name="Trazado 103030" d="M-61.49-245.243v89.2a68.835,68.835,0,0,1-42.526,14.389h0V-248.663h39.109a3.42,3.42,0,0,1,3.42,3.42h0Z" fill="#d1f6ff"/>
    <path id="Trazado_103031" data-name="Trazado 103031" d="M-61.495-156.04a68.967,68.967,0,0,1-16.082,9.269v-9.269Z" fill="#66e1d2"/>
    <path id="Trazado_103032" data-name="Trazado 103032" d="M-90.151-158.3c-.153,0-.31,0-.473-.015-4.385-.269-5.822-3.881-6.976-6.785-1.205-3.02-1.877-4.223-3.7-3.956-1.246.182-1.846,1.6-2.685,3.921-1.06,2.927-2.5,6.931-7.466,6.813-4.64-.115-6.08-5.264-7.357-9.807-1.078-3.846-2.093-7.475-4.525-7.829a2.69,2.69,0,0,0-2.093.6c-3.131,2.392-4.739,10.525-5.093,13.456a1.216,1.216,0,0,1-1.352,1.061,1.215,1.215,0,0,1-1.061-1.352c.056-.472,1.445-11.582,6.026-15.092a5.081,5.081,0,0,1,3.923-1.081c4,.578,5.283,5.154,6.52,9.581,1.348,4.81,2.43,7.966,5.076,8.032h.158c2.865,0,3.788-1.981,4.963-5.213.865-2.392,1.845-5.093,4.619-5.5,3.9-.565,5.238,2.774,6.31,5.461,1.262,3.164,2.221,5.1,4.873,5.26,1.851.117,2.492-.68,3.662-2.34,1.434-2.033,3.4-4.816,9.235-4.816a1.215,1.215,0,0,1,1.215,1.215,1.215,1.215,0,0,1-1.215,1.215h0c-4.578,0-5.88,1.839-7.25,3.788-1.12,1.589-2.384,3.379-5.324,3.379Z" fill="#323b5a"/>
    <path id="Trazado_103033" data-name="Trazado 103033" d="M-133.092-231.031h58.755v8.6h-58.755Z" fill="#374c81"/>
    <path id="Trazado_103034" data-name="Trazado 103034" d="M-104.019-231.031h29.683v8.6h-29.683Z" fill="#323b5a"/>
    <path id="Trazado_103035" data-name="Trazado 103035" d="M-133.092-213.83h58.755v8.6h-58.755Z" fill="#374c81"/>
    <path id="Trazado_103036" data-name="Trazado 103036" d="M-104.019-213.83h29.683v8.6h-29.683Z" fill="#323b5a"/>
    <path id="Trazado_103037" data-name="Trazado 103037" d="M-133.092-196.631h58.755v8.6h-58.755Z" fill="#374c81"/>
    <path id="Trazado_103038" data-name="Trazado 103038" d="M-104.019-196.631h29.683v8.6h-29.683Z" fill="#323b5a"/>
    <path id="Trazado_103039" data-name="Trazado 103039" d="M-86.207-174.6l-2.342,6.654a16.013,16.013,0,0,1-5.4,7.437,16,16,0,0,1,.45-9.178l2.342-6.655Z" fill="#4e689b"/>
    <path id="Trazado_103040" data-name="Trazado 103040" d="M-86.207-174.593l-2.342,6.655a16.013,16.013,0,0,1-5.4,7.437,28.662,28.662,0,0,1,1.686-8.743l2.342-6.655Z" fill="#374c81"/>
    <path id="Trazado_103041" data-name="Trazado 103041" d="M-86.207-174.594l-2.342,6.655a16.013,16.013,0,0,1-5.4,7.437l5.266-14.962Z" fill="#323b5a"/>
    <path id="Trazado_103042" data-name="Trazado 103042" d="M-70.788-206A251.733,251.733,0,0,1-86.84-169.719l-6.877-2.421a251.93,251.93,0,0,1,10.208-38.333c1.6-4.55,5.333-14.746,8.682-23.457,2.037-5.3,3.932-10.053,5.119-12.651a5.546,5.546,0,0,1,7.116-3.021h0a5.77,5.77,0,0,1,.786.343h0c.052.025.1.052.154.08a5.48,5.48,0,0,1,2.716,6.389c-.7,2.769-2.2,7.661-3.933,13.069-2.846,8.888-6.323,19.174-7.924,23.721Z" fill="#ffe400"/>
    <path id="Trazado_103043" data-name="Trazado 103043" d="M-70.788-206a251.617,251.617,0,0,1-16.051,36.279L-92-171.536c3.275-12.384,7.162-25.038,11.661-37.821,1.6-4.55,5.269-14.769,8.494-23.522,1.959-5.327,3.757-10.114,4.824-12.757,1.3-3.221,3.154-4.413,4.434-3.965h0a1.585,1.585,0,0,1,.457.253.694.694,0,0,0,.329.09h0c.052.025.1.052.154.08a5.48,5.48,0,0,1,2.716,6.389c-.7,2.769-2.2,7.661-3.933,13.069-2.846,8.888-6.323,19.174-7.924,23.721Z" fill="#fed110"/>
    <path id="Trazado_103044" data-name="Trazado 103044" d="M-70.788-206A251.732,251.732,0,0,1-86.84-169.718l-3.438-1.21,27.69-78.671a5.543,5.543,0,0,1,3.657,6.812c-.7,2.769-2.2,7.661-3.933,13.069C-65.71-220.833-69.186-210.547-70.788-206Z" fill="#fcbf12"/>
    <path id="Trazado_103045" data-name="Trazado 103045" d="M-62.863-229.722l-11.96-4.211c2.037-5.3,3.932-10.053,5.119-12.651a5.546,5.546,0,0,1,7.116-3.021h0a6.135,6.135,0,0,1,.79.342,5.481,5.481,0,0,1,2.867,6.47c-.7,2.769-2.2,7.661-3.933,13.068Z" fill="#ffe400"/>
    <path id="Trazado_103046" data-name="Trazado 103046" d="M-62.863-229.721l-8.986-3.164c1.959-5.327,3.757-10.114,4.824-12.757,1.3-3.221,3.154-4.413,4.435-3.965h0a1.617,1.617,0,0,1,.458.253.67.67,0,0,0,.333.089,5.481,5.481,0,0,1,2.867,6.47c-.7,2.769-2.2,7.661-3.933,13.069Z" fill="#fed110"/>
    <path id="Trazado_103047" data-name="Trazado 103047" d="M-62.863-229.721l-5.98-2.105,6.256-17.776a5.543,5.543,0,0,1,3.657,6.812C-59.628-240.021-61.132-235.129-62.863-229.721Z" fill="#fcbf12"/>
    <path id="Trazado_103048" data-name="Trazado 103048" d="M-56.862-228.733l-9.227,26.213a3.567,3.567,0,0,1-2.954,2.36,1.1,1.1,0,0,1-1.2-.981,1.1,1.1,0,0,1,.059-.48l8.735-24.817-14.365-5.056a1.574,1.574,0,0,1-.961-2.006l.7-2a1.571,1.571,0,0,1,2-.961h0l16.246,5.718a1.572,1.572,0,0,1,.961,2Z" fill="#4e689b"/>
    <path id="Trazado_103049" data-name="Trazado 103049" d="M-56.862-228.733l-9.227,26.213a3.567,3.567,0,0,1-2.954,2.36,1.1,1.1,0,0,1-1.2-.981,1.1,1.1,0,0,1,.059-.48l8.735-24.817-8.272-2.91,1.748-4.967,10.146,3.571a1.572,1.572,0,0,1,.961,2Z" fill="#374c81"/>
    <path id="Trazado_103050" data-name="Trazado 103050" d="M-62.676-222.962l1.211-3.438,3.361,1.183-1.21,3.438Z" fill="#323b5a"/>
  </g>
</svg>
